<svg xmlns="http://www.w3.org/2000/svg" viewBox="-500 -500 1000 1000" width="100%" height="100%">
  <path fill="currentColor" fill-rule="evenodd" d="
M 34.5 127.5 L 33.8 127.1 L 31.6 129.0 Z M -346.9 148.7 L -346.2 153.8 L -342.9 159.7 L -341.4 159.3 L -339.6 160.8 L -330.1 163.0 L -328.3 162.6 L -320.6 166.6 L -314.0 167.3 L -307.8 171.4 L -306.0 171.4 L -293.2 176.1 L -287.7 176.5 L -274.6 182.7 L -268.7 183.4 L -267.6 184.5 L -250.5 191.1 L -247.5 191.1 L -246.1 192.2 L -242.1 192.9 L -225.6 199.5 L -217.6 200.6 L -212.8 203.5 L -209.5 206.8 L -207.7 206.4 L -207.0 205.3 L -204.4 205.3 L -198.2 209.0 L -193.5 209.0 L -189.8 207.2 L -187.6 207.2 L -185.4 205.3 L -185.1 203.1 L -186.5 202.0 L -186.5 199.9 L -185.1 197.7 L -185.1 192.5 L -186.5 190.0 L -194.9 186.3 L -196.0 187.8 L -198.6 187.4 L -207.3 182.7 L -212.5 181.2 L -212.8 180.1 L -211.4 179.8 L -212.1 179.0 L -214.7 178.7 L -213.2 180.1 L -215.7 179.4 L -216.1 177.9 L -219.0 176.1 L -222.3 175.4 L -238.8 168.1 L -244.2 167.0 L -246.4 165.1 L -252.3 162.6 L -256.3 163.0 L -270.6 160.0 L -273.5 158.2 L -276.4 157.8 L -315.9 141.0 L -317.0 138.1 L -315.5 136.6 L -312.6 136.3 L -309.3 131.9 L -300.1 128.2 L -296.1 119.8 L -293.2 122.0 L -290.3 120.9 L -292.5 119.5 L -294.7 119.5 L -296.1 118.0 L -295.0 115.1 L -288.8 115.1 L -286.3 116.6 L -282.2 117.3 L -276.4 116.9 L -266.5 118.7 L -261.1 120.9 L -245.3 121.3 L -234.7 123.1 L -223.1 122.8 L -212.5 124.6 L -209.5 126.8 L -196.0 128.2 L -191.3 130.4 L -186.9 130.1 L -186.2 130.8 L -183.2 130.8 L -181.8 129.7 L -168.6 130.8 L -162.4 132.6 L -154.7 132.6 L -150.0 134.8 L -145.6 139.6 L -141.6 139.9 L -129.2 145.8 L -112.3 150.5 L -106.9 152.7 L -105.8 154.2 L -99.9 153.8 L -95.5 150.2 L -93.4 142.5 L -93.4 138.8 L -94.8 136.6 L -98.8 134.5 L -105.0 133.4 L -114.2 129.0 L -118.2 128.2 L -118.6 118.0 L -121.1 115.5 L -123.7 115.5 L -128.4 112.2 L -134.3 112.9 L -137.6 110.7 L -142.3 110.0 L -144.5 111.4 L -147.4 111.4 L -150.0 110.3 L -156.6 110.7 L -163.1 108.5 L -173.0 109.2 L -173.4 108.5 L -171.5 107.8 L -175.2 107.8 L -178.1 106.7 L -179.9 107.1 L -179.9 107.8 L -184.3 107.4 L -188.3 108.1 L -194.2 107.4 L -203.7 104.1 L -211.7 103.8 L -213.2 102.7 L -220.9 102.3 L -222.7 101.2 L -226.7 101.6 L -228.2 100.5 L -241.0 100.8 L -250.1 98.3 L -255.9 99.0 L -262.9 98.6 L -270.2 97.2 L -276.0 94.6 L -285.5 94.3 L -287.7 91.3 L -287.7 88.8 L -289.2 86.2 L -290.6 86.2 L -293.9 84.0 L -296.1 84.0 L -296.9 85.1 L -299.8 86.2 L -302.0 88.8 L -313.7 94.6 L -315.1 94.6 L -318.0 98.6 L -328.6 103.8 L -336.3 111.8 L -340.3 119.1 L -340.3 120.9 L -345.5 132.3 L -346.5 136.6 L -345.8 147.2 Z M 109.1 -119.1 L 112.3 -116.6 L 111.6 -118.0 Z M 499.6 -102.7 L 497.1 -108.5 L 496.0 -116.6 L 492.0 -123.5 L 488.7 -134.1 L 485.8 -136.6 L 486.8 -139.2 L 485.4 -139.6 L 483.9 -142.5 L 480.3 -146.1 L 478.1 -146.5 L 475.9 -149.8 L 471.1 -153.1 L 466.8 -152.0 L 463.8 -152.4 L 458.0 -149.1 L 449.9 -147.2 L 444.8 -144.3 L 436.4 -152.7 L 433.5 -157.1 L 431.3 -157.8 L 428.4 -160.4 L 428.8 -163.7 L 432.0 -165.9 L 435.7 -173.5 L 439.0 -176.5 L 440.8 -182.3 L 447.0 -190.7 L 447.8 -196.2 L 451.8 -206.4 L 456.5 -214.5 L 460.2 -224.7 L 459.8 -232.4 L 458.7 -234.6 L 459.1 -244.8 L 457.3 -252.5 L 457.3 -259.0 L 454.7 -263.8 L 452.5 -271.5 L 444.5 -287.2 L 440.4 -290.5 L 435.7 -297.0 L 430.6 -300.0 L 426.6 -304.7 L 429.5 -310.9 L 429.5 -319.3 L 424.7 -324.8 L 420.0 -325.2 L 413.8 -321.9 L 408.7 -321.9 L 402.4 -324.1 L 401.0 -325.5 L 394.0 -324.1 L 388.2 -324.4 L 380.9 -326.6 L 369.2 -327.4 L 366.3 -326.3 L 355.0 -326.3 L 354.2 -327.0 L 349.8 -327.4 L 346.9 -329.2 L 340.7 -328.8 L 340.0 -329.6 L 337.4 -329.6 L 325.7 -323.7 L 323.2 -320.4 L 319.1 -317.9 L 306.7 -306.5 L 295.0 -293.8 L 293.6 -289.0 L 289.6 -285.7 L 272.7 -267.4 L 269.5 -266.0 L 265.1 -262.0 L 258.5 -259.0 L 252.6 -253.6 L 247.5 -251.0 L 242.8 -246.6 L 236.6 -243.0 L 232.2 -238.2 L 228.5 -236.4 L 222.3 -230.9 L 221.2 -230.9 L 208.8 -221.8 L 202.2 -215.6 L 190.5 -209.0 L 187.6 -208.6 L 181.8 -205.0 L 179.2 -202.0 L 162.0 -193.3 L 142.7 -176.8 L 135.4 -172.8 L 132.8 -170.3 L 128.1 -169.2 L 122.9 -161.9 L 118.9 -161.9 L 113.4 -157.1 L 106.9 -155.6 L 103.9 -151.6 L 101.4 -152.0 L 98.8 -154.5 L 93.7 -157.5 L 91.2 -157.5 L 84.6 -161.5 L 81.3 -164.8 L 63.8 -173.9 L 59.0 -177.9 L 56.1 -178.3 L 37.4 -186.7 L 33.1 -189.6 L 28.7 -194.7 L 26.5 -195.5 L 22.5 -195.1 L 18.8 -198.8 L 13.0 -199.9 L 11.5 -201.7 L 11.1 -204.2 L 6.4 -203.5 L 5.3 -204.6 L 6.0 -206.1 L 4.9 -207.2 L 2.4 -207.5 L -7.1 -211.9 L -13.0 -213.4 L -18.8 -212.6 L -21.7 -216.7 L -25.4 -216.7 L -26.9 -218.1 L -30.1 -218.9 L -30.9 -217.4 L -32.7 -217.4 L -33.1 -218.1 L -31.2 -219.6 L -41.8 -224.0 L -46.6 -224.7 L -49.1 -223.2 L -51.7 -226.5 L -52.8 -226.2 L -56.1 -228.0 L -57.5 -229.8 L -57.5 -231.3 L -60.1 -231.3 L -80.6 -244.4 L -83.5 -244.4 L -89.0 -247.4 L -94.1 -247.0 L -94.8 -245.9 L -95.9 -245.9 L -99.6 -241.9 L -105.0 -230.9 L -114.5 -222.1 L -116.4 -218.5 L -118.6 -216.3 L -118.9 -214.1 L -122.6 -211.9 L -133.2 -202.4 L -135.0 -202.4 L -139.4 -197.7 L -146.3 -192.9 L -149.6 -186.0 L -149.6 -183.4 L -151.8 -180.1 L -151.8 -172.8 L -154.0 -167.3 L -154.0 -163.7 L -153.3 -163.0 L -150.0 -163.3 L -148.5 -157.8 L -147.1 -155.3 L -143.8 -152.4 L -143.8 -149.8 L -140.5 -146.5 L -135.0 -144.0 L -133.2 -142.1 L -129.9 -140.7 L -125.9 -136.6 L -119.7 -133.4 L -115.3 -127.9 L -113.4 -127.9 L -108.7 -123.9 L -105.4 -119.5 L -101.4 -117.3 L -98.5 -114.4 L -99.9 -110.0 L -94.8 -111.1 L -94.1 -109.6 L -93.4 -110.3 L -91.9 -110.0 L -86.8 -105.2 L -87.1 -103.4 L -85.7 -101.6 L -80.2 -98.3 L -78.4 -98.3 L -70.0 -89.5 L -61.2 -83.3 L -51.3 -77.8 L -40.4 -73.8 L -29.4 -63.9 L -25.0 -62.1 L -22.5 -58.8 L -22.5 -56.6 L -26.1 -50.4 L -29.8 -46.8 L -31.2 -46.4 L -41.1 -38.0 L -45.5 -35.4 L -53.5 -27.8 L -60.8 -24.1 L -70.7 -16.1 L -83.1 -8.8 L -90.4 -2.6 L -101.0 3.7 L -114.5 16.1 L -143.8 31.8 L -150.7 34.3 L -156.9 35.1 L -169.3 48.6 L -181.0 55.2 L -182.1 56.6 L -190.2 55.9 L -193.8 56.6 L -198.2 55.5 L -216.5 44.9 L -222.0 40.2 L -226.0 38.4 L -228.5 35.8 L -230.4 35.4 L -236.2 28.9 L -244.2 25.2 L -258.5 15.7 L -259.6 15.7 L -263.2 11.7 L -269.5 9.5 L -272.7 9.5 L -273.8 11.0 L -275.3 11.0 L -280.1 6.2 L -291.7 -0.7 L -296.5 -5.8 L -321.7 -20.5 L -328.3 -25.2 L -333.0 -30.0 L -341.1 -34.7 L -349.8 -42.7 L -351.7 -43.1 L -354.6 -46.4 L -364.1 -52.2 L -367.4 -55.5 L -368.8 -59.2 L -371.4 -61.7 L -377.6 -64.3 L -380.5 -64.3 L -386.4 -67.2 L -392.6 -67.6 L -398.1 -69.8 L -406.5 -70.1 L -416.0 -64.3 L -428.8 -63.6 L -434.2 -56.6 L -442.3 -48.6 L -444.5 -47.5 L -444.8 -45.7 L -457.3 -32.2 L -458.3 -32.5 L -463.5 -29.6 L -467.5 -24.1 L -475.5 -17.2 L -489.8 -9.9 L -494.9 -6.2 L -497.4 -2.6 L -497.4 0.4 L -500.0 6.2 L -498.5 7.3 L -498.5 9.1 L -499.6 10.2 L -499.3 15.0 L -497.8 13.9 L -495.6 15.0 L -495.3 17.5 L -491.6 24.5 L -487.2 28.1 L -486.1 31.4 L -478.8 38.0 L -477.3 41.3 L -467.8 50.1 L -467.8 51.2 L -461.3 57.7 L -459.8 60.7 L -451.8 68.0 L -447.4 78.2 L -443.7 82.9 L -440.8 88.8 L -433.9 95.4 L -433.5 99.4 L -430.6 101.9 L -428.8 106.0 L -418.2 117.3 L -417.4 119.5 L -413.8 122.8 L -408.7 131.2 L -405.0 135.2 L -401.4 144.3 L -397.7 147.2 L -392.6 157.8 L -388.9 163.0 L -389.7 168.8 L -386.4 175.7 L -379.8 182.7 L -375.4 192.2 L -366.3 201.7 L -363.4 207.9 L -359.3 211.5 L -356.0 217.8 L -353.9 218.5 L -348.4 224.0 L -346.9 226.5 L -345.5 226.5 L -341.4 230.5 L -337.4 238.2 L -318.0 257.2 L -315.1 262.7 L -315.1 264.2 L -310.0 268.5 L -306.0 274.4 L -300.1 277.3 L -288.5 287.9 L -280.1 291.9 L -272.4 300.3 L -266.9 304.3 L -265.8 304.3 L -264.3 305.8 L -263.2 309.1 L -259.6 311.7 L -252.3 319.3 L -247.9 321.5 L -242.4 321.9 L -239.1 325.9 L -232.9 326.3 L -227.4 329.2 L -224.2 329.2 L -219.0 327.4 L -208.1 319.7 L -203.3 320.4 L -201.9 318.6 L -194.9 314.2 L -192.4 314.6 L -190.9 313.5 L -188.0 313.5 L -181.8 308.7 L -177.7 302.2 L -174.5 298.9 L -171.2 297.0 L -168.2 297.4 L -158.0 291.2 L -156.2 291.2 L -150.3 287.5 L -141.2 283.9 L -132.4 284.6 L -130.3 283.9 L -126.2 279.5 L -117.5 280.2 L -113.8 278.8 L -111.3 276.2 L -110.2 271.5 L -106.5 264.9 L -101.0 258.7 L -83.9 244.8 L -69.6 239.7 L -61.9 229.4 L -50.2 217.8 L -41.5 212.6 L -36.4 207.5 L -36.7 206.4 L -35.6 205.0 L -31.2 202.0 L -29.4 202.8 L -25.8 200.2 L -23.2 200.6 L -19.5 198.8 L -18.8 199.1 L -14.8 193.6 L -13.7 190.7 L -7.9 185.2 L -8.2 183.4 L -6.0 180.9 L -3.5 182.0 L -1.6 181.6 L 0.5 178.3 L 10.0 169.2 L 15.5 165.5 L 25.0 157.1 L 34.2 152.0 L 40.7 147.2 L 43.7 144.0 L 44.8 145.8 L 48.0 143.2 L 50.2 142.9 L 53.2 138.5 L 54.3 139.2 L 60.8 135.9 L 63.4 131.2 L 69.2 125.0 L 78.4 121.3 L 82.4 121.3 L 86.8 119.1 L 97.0 107.8 L 103.2 102.3 L 108.7 100.1 L 120.0 99.7 L 128.4 90.6 L 128.8 88.1 L 133.9 83.7 L 135.4 83.7 L 139.4 81.1 L 145.2 74.2 L 146.7 75.3 L 147.1 78.2 L 151.4 81.8 L 150.3 84.0 L 150.3 87.7 L 153.3 90.6 L 157.7 91.0 L 160.6 93.5 L 162.8 97.9 L 162.0 100.8 L 162.8 110.0 L 166.4 118.4 L 166.4 120.9 L 169.3 127.1 L 173.7 131.2 L 180.7 141.4 L 185.8 146.5 L 193.1 149.4 L 196.4 152.0 L 205.9 153.1 L 208.1 152.7 L 208.8 151.6 L 218.3 151.3 L 222.3 152.4 L 223.8 149.1 L 229.6 144.0 L 230.7 138.5 L 237.3 126.8 L 238.4 120.9 L 237.7 117.6 L 234.0 111.4 L 232.9 107.4 L 228.5 100.5 L 228.5 98.6 L 226.7 97.9 L 220.1 91.0 L 215.7 88.8 L 211.7 88.8 L 205.9 85.1 L 202.2 85.1 L 198.6 83.7 L 197.5 84.4 L 192.7 83.7 L 190.5 84.8 L 182.1 80.7 L 177.4 81.8 L 177.0 80.4 L 178.8 77.1 L 178.1 73.8 L 171.2 69.4 L 164.6 62.8 L 167.5 61.7 L 175.6 53.7 L 182.1 50.8 L 185.8 46.4 L 189.4 39.5 L 195.7 33.2 L 197.8 31.8 L 200.0 32.2 L 208.8 24.8 L 226.3 16.4 L 229.3 12.8 L 231.5 13.5 L 233.3 17.5 L 233.3 20.5 L 241.3 29.2 L 246.4 36.9 L 247.5 43.1 L 246.8 57.0 L 249.7 62.5 L 251.2 68.0 L 255.6 72.0 L 258.1 79.6 L 261.1 82.2 L 262.1 82.2 L 271.6 91.7 L 273.8 92.8 L 278.6 92.8 L 285.5 96.5 L 296.5 98.3 L 299.1 99.7 L 303.4 99.7 L 304.5 98.3 L 306.7 97.6 L 313.7 89.5 L 316.6 82.9 L 317.7 69.1 L 316.6 68.0 L 316.2 60.7 L 311.8 50.4 L 308.9 47.9 L 309.3 46.8 L 304.2 38.4 L 304.2 36.9 L 298.0 31.8 L 297.6 30.0 L 295.0 27.8 L 286.6 24.1 L 285.5 22.7 L 277.1 24.1 L 276.4 22.7 L 273.8 22.7 L 269.5 27.4 L 265.8 29.6 L 258.9 29.6 L 256.7 27.0 L 248.6 9.9 L 244.6 5.5 L 244.2 3.3 L 245.7 2.2 L 247.5 -1.8 L 257.0 -11.7 L 260.0 -12.4 L 269.8 -24.5 L 275.3 -28.5 L 281.1 -31.4 L 284.4 -35.8 L 291.4 -38.7 L 296.5 -43.8 L 300.9 -46.8 L 300.9 -48.6 L 302.3 -49.7 L 302.3 -50.8 L 317.0 -65.4 L 320.2 -66.9 L 323.5 -70.5 L 328.3 -73.8 L 333.8 -80.7 L 335.2 -80.0 L 334.5 -81.1 L 335.2 -81.8 L 337.4 -81.1 L 340.7 -84.8 L 344.4 -86.2 L 351.7 -94.6 L 354.2 -100.8 L 356.0 -101.2 L 357.9 -99.7 L 359.0 -100.1 L 367.4 -109.2 L 371.4 -112.2 L 384.5 -125.0 L 384.9 -126.8 L 389.3 -131.2 L 399.9 -137.0 L 405.7 -138.8 L 408.3 -141.8 L 413.0 -142.5 L 418.5 -145.8 L 424.0 -143.6 L 426.6 -141.4 L 426.6 -138.8 L 422.9 -134.5 L 422.5 -127.1 L 427.7 -122.0 L 427.7 -116.6 L 428.8 -113.3 L 436.8 -97.9 L 452.5 -81.8 L 463.1 -76.7 L 467.5 -75.6 L 472.2 -75.6 L 483.9 -77.8 L 487.9 -80.4 L 492.0 -84.0 L 496.7 -91.3 L 499.6 -97.6 Z M 184.3 116.2 L 189.4 112.9 L 194.9 107.1 L 199.7 107.1 L 203.3 104.5 L 205.9 104.5 L 211.7 108.5 L 217.2 114.0 L 219.8 121.7 L 219.4 127.5 L 213.6 133.4 L 212.1 133.4 L 210.6 134.8 L 200.0 135.2 L 196.4 133.4 L 192.0 129.0 L 191.3 125.3 L 187.6 122.0 L 187.6 120.6 Z M -103.6 49.0 L -101.8 49.0 L -99.9 50.4 L -95.2 51.9 L -85.3 57.7 L -79.8 59.9 L -78.0 61.7 L -71.4 71.6 L -72.2 76.4 L -77.3 82.9 L -80.9 84.8 L -86.4 83.7 L -94.1 78.9 L -101.4 70.1 L -102.1 64.3 L -105.8 55.5 L -105.8 51.5 Z M 273.1 44.6 L 276.8 44.2 L 278.6 43.1 L 281.1 43.5 L 283.3 42.4 L 285.5 45.3 L 288.8 47.5 L 288.8 48.6 L 293.6 53.0 L 297.2 59.6 L 302.0 64.3 L 302.0 67.6 L 304.2 74.2 L 303.4 76.4 L 298.3 78.6 L 288.5 78.2 L 284.4 76.0 L 278.6 74.5 L 269.5 65.4 L 267.3 60.3 L 267.3 54.8 L 270.9 50.1 Z M -49.9 -1.5 L -49.1 -2.2 L -45.9 -1.1 L -39.3 -1.5 L -37.8 -2.9 L -35.6 -2.9 L -33.1 -4.4 L -28.0 -4.7 L -23.6 -1.8 L -18.8 -1.8 L -13.7 0.0 L -11.1 0.0 L -8.6 1.5 L -4.6 6.2 L 1.6 8.8 L 7.1 13.2 L 8.2 17.2 L 7.9 20.1 L 3.5 28.9 L -1.3 33.6 L -2.4 33.2 L -3.5 34.3 L -8.2 35.8 L -18.8 35.4 L -20.3 33.6 L -21.0 34.0 L -22.5 32.5 L -25.0 32.5 L -26.1 31.4 L -32.0 32.5 L -40.0 24.1 L -41.5 20.5 L -45.1 15.3 L -49.9 4.7 Z M 347.3 -96.1 L 348.0 -95.4 L 345.5 -92.8 L 345.5 -95.0 Z M 352.0 -100.8 L 352.8 -99.7 L 350.6 -97.9 L 349.8 -98.6 Z M 365.2 -108.9 L 365.2 -107.8 L 363.4 -106.3 L 362.6 -107.8 L 364.1 -109.2 Z M 463.8 -134.5 L 473.3 -127.5 L 473.7 -125.7 L 479.2 -118.0 L 481.4 -112.9 L 481.7 -99.0 L 479.2 -94.6 L 476.3 -92.4 L 467.8 -92.4 L 462.7 -95.0 L 455.1 -102.7 L 445.2 -116.6 L 445.9 -118.7 L 450.3 -119.1 L 454.0 -118.4 L 457.6 -120.2 L 460.5 -123.5 L 462.4 -127.1 L 462.7 -131.2 L 462.0 -133.0 Z M 122.6 -137.4 L 123.7 -135.5 L 125.9 -136.6 L 126.2 -139.6 L 127.7 -139.6 L 130.3 -134.5 L 133.5 -131.2 L 136.1 -126.4 L 136.1 -125.0 L 140.5 -119.8 L 136.8 -119.8 L 126.2 -131.2 L 122.9 -133.4 L 122.6 -134.8 L 121.1 -135.9 Z M 81.7 -143.2 L 83.9 -141.4 L 82.4 -139.6 L 80.6 -141.0 L 80.6 -142.5 Z M 147.8 -143.6 L 149.6 -144.0 L 156.6 -139.2 L 165.0 -135.2 L 167.9 -132.3 L 167.9 -130.8 L 167.2 -129.7 L 165.7 -130.1 L 164.6 -129.0 L 177.7 -123.1 L 183.2 -116.6 L 184.0 -114.0 L 183.2 -110.3 L 182.5 -109.6 L 181.0 -110.0 L 177.7 -113.3 L 173.0 -112.5 L 163.5 -120.9 L 160.9 -124.2 L 155.8 -121.3 L 154.7 -123.5 L 156.6 -126.1 L 152.2 -130.4 L 150.3 -135.9 L 147.8 -137.7 Z M 173.4 -176.8 L 169.3 -173.9 L 166.4 -173.5 L 167.9 -175.7 L 169.7 -175.7 L 172.6 -177.6 Z M 194.2 -179.0 L 204.8 -187.8 L 205.9 -187.8 L 210.6 -182.3 L 213.9 -180.5 L 215.0 -180.9 L 219.8 -175.0 L 227.8 -173.9 L 228.9 -172.8 L 231.5 -172.5 L 240.6 -160.0 L 244.6 -150.5 L 245.3 -144.7 L 240.6 -139.6 L 237.7 -138.1 L 228.9 -138.1 L 226.0 -136.3 L 220.5 -136.3 L 214.7 -138.1 L 208.4 -141.4 L 205.2 -144.3 L 200.8 -152.4 L 195.3 -159.3 L 193.1 -169.5 Z M 221.6 -204.6 L 223.1 -202.0 L 222.3 -197.7 L 224.9 -195.1 L 225.2 -193.6 L 224.2 -192.5 L 220.1 -191.8 L 218.7 -192.9 L 215.7 -198.4 L 217.2 -201.3 Z M 237.3 -207.2 L 242.4 -203.9 L 246.8 -205.7 L 255.2 -206.4 L 257.8 -204.6 L 262.9 -203.5 L 266.5 -199.1 L 272.0 -196.9 L 276.8 -192.2 L 277.1 -190.4 L 279.7 -188.2 L 281.5 -182.7 L 279.0 -180.1 L 264.3 -181.6 L 256.7 -185.2 L 249.0 -190.4 L 248.3 -191.8 L 244.6 -192.9 L 236.6 -202.4 Z M 248.3 -228.4 L 252.6 -230.2 L 255.2 -232.4 L 257.4 -232.4 L 262.1 -225.4 L 270.9 -217.8 L 270.9 -216.3 L 268.0 -215.9 L 264.3 -218.9 L 252.3 -224.0 L 247.9 -227.3 Z M 444.1 -255.8 L 444.1 -250.6 L 446.3 -245.9 L 447.8 -236.8 L 447.0 -222.5 L 444.1 -215.2 L 440.8 -211.9 L 437.5 -205.7 L 437.5 -203.5 L 432.0 -191.5 L 429.1 -188.2 L 421.8 -174.6 L 417.4 -169.9 L 412.7 -166.2 L 407.6 -163.7 L 394.4 -151.6 L 383.8 -145.0 L 382.0 -144.7 L 380.5 -142.1 L 377.2 -141.4 L 369.2 -132.3 L 363.7 -129.0 L 361.2 -126.4 L 350.9 -121.7 L 331.2 -101.9 L 325.0 -94.3 L 318.8 -88.8 L 316.2 -87.7 L 308.9 -79.6 L 304.5 -77.1 L 304.2 -75.3 L 298.7 -70.9 L 298.0 -68.3 L 288.1 -58.1 L 280.1 -51.2 L 275.7 -49.0 L 268.0 -43.1 L 261.8 -35.8 L 251.6 -28.9 L 244.2 -20.8 L 238.0 -16.4 L 237.3 -14.6 L 232.6 -13.2 L 220.9 -5.1 L 207.0 6.6 L 203.0 6.9 L 203.7 8.4 L 202.6 9.9 L 194.2 14.6 L 181.0 25.2 L 177.4 27.0 L 162.0 41.7 L 157.7 44.2 L 150.3 50.4 L 143.8 54.1 L 141.2 56.6 L 140.1 56.3 L 140.8 55.2 L 140.1 54.4 L 140.5 57.4 L 139.4 58.8 L 133.2 62.5 L 131.7 62.5 L 122.6 72.0 L 112.7 77.1 L 106.9 81.8 L 102.1 84.4 L 98.5 85.1 L 97.0 83.7 L 96.3 84.4 L 97.7 85.1 L 97.4 87.0 L 90.8 93.2 L 83.5 98.3 L 80.9 98.3 L 73.3 104.9 L 69.2 106.3 L 68.5 107.4 L 65.2 107.4 L 60.1 111.8 L 55.7 114.0 L 54.3 113.6 L 55.4 112.5 L 54.3 111.1 L 52.8 114.4 L 49.5 115.1 L 40.0 127.1 L 38.5 127.5 L 33.4 131.9 L 26.1 134.1 L 21.0 139.9 L 13.3 144.0 L 10.8 144.0 L 3.5 152.0 L -9.3 161.5 L -23.2 177.2 L -36.0 183.8 L -51.7 195.1 L -73.3 218.5 L -76.5 218.9 L -85.7 227.6 L -95.2 231.3 L -101.0 237.9 L -104.7 239.3 L -114.2 249.2 L -118.9 258.7 L -121.8 261.6 L -123.7 261.6 L -126.6 263.4 L -134.6 262.7 L -141.6 265.6 L -149.6 265.6 L -154.0 267.4 L -166.4 275.5 L -179.9 282.4 L -188.0 289.7 L -195.7 293.0 L -204.1 300.0 L -212.1 303.6 L -216.1 303.6 L -224.2 309.5 L -232.6 309.5 L -240.6 300.3 L -243.5 298.9 L -244.6 299.2 L -248.6 293.4 L -252.3 291.9 L -262.5 281.3 L -266.9 281.3 L -269.8 279.5 L -292.8 256.1 L -298.0 248.1 L -310.0 236.0 L -315.9 226.5 L -324.3 218.5 L -338.5 200.9 L -346.2 193.3 L -350.9 185.2 L -364.1 167.0 L -366.3 161.9 L -376.9 150.5 L -376.9 145.0 L -381.3 141.0 L -386.4 128.2 L -389.7 125.3 L -393.3 117.6 L -399.2 111.4 L -400.6 107.1 L -406.1 101.9 L -408.3 97.2 L -410.9 95.0 L -410.5 93.5 L -411.6 90.2 L -419.6 82.2 L -421.8 75.6 L -425.1 70.5 L -427.7 63.9 L -432.4 59.2 L -439.7 59.2 L -445.6 51.5 L -456.5 41.3 L -468.6 26.7 L -471.1 20.8 L -474.8 16.4 L -475.2 13.5 L -478.4 8.0 L -476.6 5.5 L -477.3 4.0 L -478.8 3.7 L -473.7 -0.7 L -467.5 -3.7 L -463.1 -7.3 L -456.9 -14.2 L -452.9 -16.8 L -439.7 -30.0 L -437.9 -32.9 L -433.9 -36.9 L -432.0 -37.3 L -428.0 -42.0 L -419.3 -46.8 L -414.5 -46.8 L -411.2 -47.9 L -403.9 -47.5 L -393.7 -42.4 L -390.4 -39.1 L -384.2 -36.2 L -373.6 -29.2 L -370.3 -25.9 L -363.4 -22.7 L -361.2 -20.1 L -358.2 -19.0 L -349.5 -10.2 L -342.2 -5.8 L -331.2 5.8 L -319.1 12.1 L -302.3 24.1 L -297.2 27.0 L -291.4 23.7 L -285.9 24.1 L -284.4 25.6 L -283.3 25.2 L -280.1 28.5 L -274.2 32.2 L -263.2 37.6 L -260.7 37.6 L -254.5 40.9 L -247.5 43.1 L -242.1 46.8 L -240.6 46.4 L -233.6 49.7 L -220.5 59.2 L -212.8 66.9 L -210.3 67.2 L -193.8 75.6 L -186.5 75.6 L -185.4 74.5 L -178.8 74.2 L -174.8 72.3 L -168.2 71.2 L -162.8 66.9 L -155.5 58.8 L -147.4 55.2 L -144.1 51.2 L -138.7 49.3 L -136.1 47.1 L -132.8 47.5 L -130.6 44.6 L -122.9 41.3 L -122.2 42.0 L -122.9 44.9 L -122.2 55.5 L -119.7 63.2 L -119.3 68.7 L -115.6 73.4 L -113.4 81.8 L -110.9 86.6 L -103.2 95.0 L -102.1 94.6 L -91.2 99.4 L -89.3 99.4 L -80.2 104.5 L -77.3 104.5 L -72.9 102.3 L -71.1 100.1 L -65.6 97.6 L -60.5 92.4 L -58.3 87.7 L -56.1 79.3 L -56.1 68.3 L -60.5 59.9 L -64.1 56.3 L -64.1 54.8 L -71.1 46.4 L -76.9 41.7 L -79.1 37.3 L -83.9 32.2 L -89.3 28.9 L -91.9 26.3 L -98.1 25.6 L -91.5 19.0 L -77.3 7.7 L -76.5 8.0 L -67.0 1.5 L -65.2 1.5 L -62.7 8.4 L -62.7 11.3 L -60.8 17.9 L -51.0 34.3 L -35.3 50.8 L -28.0 54.1 L -15.2 54.1 L -7.1 55.9 L -2.7 55.9 L 4.2 53.3 L 5.7 51.9 L 11.5 49.3 L 13.3 47.1 L 20.6 34.0 L 20.6 32.2 L 22.5 30.0 L 21.7 25.9 L 22.5 24.8 L 22.8 15.7 L 21.0 11.7 L 20.6 6.9 L 14.4 -5.1 L 7.9 -13.2 L 7.5 -14.6 L 5.7 -15.0 L 2.4 -18.3 L 0.2 -18.3 L -11.5 -21.9 L -15.2 -23.7 L -18.1 -27.0 L -22.1 -27.0 L -22.8 -27.8 L -22.8 -30.7 L -20.3 -32.9 L -15.2 -40.6 L -10.4 -44.9 L -7.1 -46.8 L -3.5 -46.8 L -2.0 -44.9 L 7.5 -38.7 L 12.6 -31.8 L 16.3 -32.2 L 23.2 -25.2 L 25.0 -22.3 L 31.2 -18.6 L 34.2 -15.3 L 37.1 -13.9 L 41.8 -8.8 L 42.9 -5.8 L 45.1 -5.8 L 49.9 -1.8 L 51.3 -1.8 L 53.2 0.4 L 60.8 3.3 L 62.3 4.7 L 67.4 5.1 L 69.6 3.7 L 70.7 4.0 L 75.4 -3.7 L 75.4 -6.2 L 74.4 -7.3 L 74.4 -8.8 L 72.9 -9.9 L 75.4 -13.2 L 72.5 -16.4 L 64.1 -23.0 L 52.4 -36.2 L 42.9 -40.2 L 42.2 -43.1 L 28.7 -51.5 L 25.8 -50.8 L 22.5 -54.4 L 18.1 -55.5 L 10.8 -63.9 L -9.7 -73.4 L -13.0 -73.4 L -14.4 -74.9 L -18.5 -76.4 L -34.2 -90.2 L -44.8 -96.8 L -50.2 -99.0 L -52.8 -99.0 L -53.9 -100.1 L -55.0 -99.7 L -67.0 -110.3 L -79.8 -123.9 L -86.8 -127.9 L -88.2 -127.9 L -94.8 -135.9 L -98.8 -137.4 L -105.4 -145.0 L -114.5 -149.8 L -118.2 -150.2 L -123.7 -153.5 L -127.3 -157.1 L -131.0 -163.3 L -131.3 -166.6 L -133.2 -169.9 L -133.2 -177.6 L -118.6 -192.9 L -115.3 -194.4 L -114.2 -195.8 L -108.0 -197.7 L -99.2 -205.0 L -93.7 -216.7 L -87.1 -225.1 L -84.6 -225.1 L -83.5 -224.0 L -82.0 -224.3 L -74.4 -220.3 L -67.8 -213.0 L -56.8 -206.8 L -52.8 -202.8 L -50.6 -203.1 L -49.5 -202.0 L -45.5 -202.0 L -44.0 -200.9 L -39.6 -200.2 L -32.7 -197.3 L -32.0 -196.2 L -29.0 -196.2 L -22.5 -192.2 L -10.4 -189.6 L -7.1 -187.8 L -3.8 -187.4 L 25.4 -173.5 L 28.3 -170.6 L 32.7 -168.1 L 48.0 -161.1 L 53.2 -156.7 L 60.8 -154.9 L 63.4 -152.0 L 62.7 -150.2 L 67.0 -145.8 L 68.5 -145.8 L 67.4 -147.2 L 67.8 -148.7 L 70.7 -148.3 L 72.5 -146.1 L 71.8 -144.7 L 75.1 -145.8 L 84.2 -136.6 L 86.8 -136.6 L 90.1 -134.1 L 91.9 -136.3 L 93.0 -136.3 L 94.8 -134.1 L 94.4 -133.0 L 99.6 -129.0 L 99.2 -126.4 L 100.3 -125.3 L 102.5 -125.0 L 103.6 -123.5 L 105.8 -125.0 L 117.1 -115.1 L 117.8 -112.5 L 119.7 -110.7 L 124.4 -108.9 L 131.7 -102.3 L 135.4 -97.2 L 139.8 -95.0 L 146.7 -88.1 L 150.3 -87.0 L 153.6 -82.6 L 158.8 -78.9 L 164.2 -72.3 L 169.7 -69.4 L 174.1 -64.7 L 179.9 -61.7 L 184.7 -67.2 L 185.1 -73.4 L 187.6 -77.1 L 187.6 -78.9 L 184.3 -76.7 L 176.7 -87.3 L 177.4 -88.1 L 188.0 -87.7 L 195.3 -88.4 L 197.5 -89.5 L 200.4 -93.9 L 203.7 -96.1 L 207.0 -100.1 L 207.3 -105.2 L 207.0 -107.4 L 201.1 -118.7 L 199.3 -120.2 L 197.5 -124.2 L 192.4 -129.3 L 192.7 -131.9 L 192.0 -131.2 L 190.9 -131.9 L 187.6 -137.7 L 178.5 -145.0 L 175.6 -146.1 L 169.3 -152.0 L 169.0 -154.2 L 164.2 -157.1 L 162.8 -157.1 L 161.7 -154.9 L 160.6 -155.6 L 162.8 -159.7 L 164.6 -161.1 L 166.1 -161.1 L 169.0 -163.7 L 170.4 -166.6 L 171.9 -165.5 L 174.1 -165.9 L 176.3 -169.2 L 176.3 -170.3 L 175.2 -169.9 L 174.8 -171.0 L 178.1 -174.3 L 179.6 -173.2 L 179.6 -163.0 L 183.2 -151.3 L 193.8 -134.8 L 196.0 -132.6 L 207.3 -125.7 L 226.0 -118.4 L 236.6 -123.1 L 243.5 -123.1 L 249.7 -126.8 L 255.6 -132.6 L 257.8 -137.7 L 257.8 -141.0 L 258.9 -142.5 L 257.8 -153.5 L 255.6 -157.5 L 253.0 -167.3 L 250.8 -169.5 L 251.2 -170.3 L 254.1 -170.3 L 257.4 -168.1 L 262.9 -167.7 L 271.3 -164.0 L 272.7 -162.6 L 281.1 -163.0 L 282.6 -164.0 L 284.4 -163.7 L 285.5 -164.8 L 287.7 -165.1 L 293.6 -174.3 L 294.7 -178.3 L 294.7 -183.4 L 292.8 -192.9 L 290.6 -197.3 L 287.0 -201.3 L 287.0 -203.1 L 291.4 -203.1 L 296.5 -199.9 L 310.7 -199.5 L 313.3 -200.9 L 317.3 -201.3 L 320.6 -203.1 L 323.9 -203.1 L 326.8 -205.0 L 332.7 -210.8 L 342.9 -215.6 L 350.9 -222.9 L 354.6 -228.0 L 357.9 -230.2 L 361.2 -234.6 L 371.8 -245.2 L 377.2 -249.2 L 378.3 -252.8 L 394.4 -268.9 L 395.5 -271.5 L 403.9 -282.4 L 410.5 -286.8 L 416.0 -292.3 L 418.2 -291.6 L 420.4 -287.2 L 436.4 -270.4 L 438.6 -265.3 L 441.5 -262.7 L 443.0 -256.9 Z M 403.5 -302.9 L 403.2 -301.8 L 393.7 -294.5 L 390.8 -291.2 L 388.2 -285.7 L 386.0 -283.2 L 381.6 -281.0 L 380.5 -278.4 L 375.0 -273.3 L 372.5 -267.4 L 362.6 -257.9 L 362.6 -256.5 L 360.1 -253.9 L 353.5 -249.5 L 340.3 -235.7 L 332.3 -231.3 L 326.8 -225.1 L 315.9 -218.1 L 312.9 -217.0 L 303.1 -216.3 L 301.2 -214.8 L 298.0 -214.8 L 289.6 -220.7 L 280.8 -230.5 L 278.6 -230.9 L 273.8 -235.3 L 273.5 -238.2 L 272.4 -239.7 L 272.4 -242.6 L 290.6 -259.8 L 294.7 -264.9 L 308.2 -278.4 L 310.7 -282.8 L 318.8 -290.8 L 322.8 -296.3 L 329.0 -301.8 L 339.6 -302.9 L 346.5 -306.9 L 365.2 -305.4 L 380.9 -306.5 L 384.5 -305.4 L 394.4 -305.4 L 399.5 -302.5 Z
" />
</svg>
