<svg xmlns="http://www.w3.org/2000/svg" viewBox="-500 -500 1000 1000" width="100%" height="100%">
  <path fill="currentColor" fill-rule="evenodd" d="
M -441.3 -315.2 L -450.0 -295.7 L -450.0 -250.0 L -441.3 -204.3 L -402.2 -130.4 L -350.0 -73.9 L -465.2 -71.7 L -469.6 -65.2 L -339.1 -65.2 L -282.6 -23.9 L -239.1 -2.2 L -169.6 45.7 L -202.2 67.4 L -341.3 60.9 L -428.3 63.0 L -471.7 45.7 L -484.8 32.6 L -491.3 -13.0 L -467.4 -54.3 L -476.1 -54.3 L -500.0 -15.2 L -500.0 10.9 L -491.3 43.5 L -471.7 56.5 L -421.7 73.9 L -323.9 69.6 L -223.9 78.3 L -291.3 119.6 L -319.6 126.1 L -350.0 160.9 L -358.7 193.5 L -352.2 219.6 L -332.6 245.7 L -263.0 252.2 L -160.9 215.2 L -145.7 280.4 L -119.6 319.6 L -80.4 337.0 L 4.3 341.3 L 28.3 308.7 L 43.5 267.4 L 63.0 163.0 L 130.4 197.8 L 158.7 223.9 L 237.0 269.6 L 265.2 278.3 L 302.2 276.1 L 317.4 269.6 L 326.1 254.3 L 319.6 228.3 L 295.7 182.6 L 256.5 143.5 L 176.1 78.3 L 326.1 80.4 L 365.2 89.1 L 460.9 91.3 L 480.4 78.3 L 497.8 50.0 L 495.7 19.6 L 476.1 -6.5 L 460.9 -13.0 L 423.9 -13.0 L 382.6 -21.7 L 319.6 -26.1 L 271.7 -10.9 L 247.8 -21.7 L 317.4 -73.9 L 319.6 -97.8 L 332.6 -130.4 L 341.3 -191.3 L 330.4 -223.9 L 308.7 -239.1 L 276.1 -245.7 L 228.3 -219.6 L 234.8 -230.4 L 221.7 -217.4 L 204.3 -213.0 L 180.4 -197.8 L 126.1 -147.8 L 84.8 -119.6 L 76.1 -154.3 L 80.4 -158.7 L 78.3 -215.2 L 65.2 -252.2 L 30.4 -319.6 L 15.2 -334.8 L 0.0 -341.3 L -32.6 -341.3 L -47.8 -334.8 L -63.0 -315.2 L -104.3 -237.0 L -130.4 -145.7 L -230.4 -241.3 L -319.6 -317.4 L -321.7 -313.0 L -343.5 -328.3 L -369.6 -337.0 L -400.0 -339.1 L -421.7 -334.8 Z M 52.2 160.9 L 32.6 271.7 L 23.9 297.8 L 4.3 328.3 L -10.9 332.6 L -71.7 330.4 L -113.0 310.9 L -132.6 282.6 L -143.5 250.0 L -147.8 217.4 L -143.5 206.5 L -104.3 189.1 L -63.0 160.9 L -4.3 130.4 Z M 65.2 95.7 L 52.2 147.8 L 6.5 126.1 Z M 78.3 87.0 L 93.5 76.1 L 160.9 78.3 L 287.0 187.0 L 291.3 204.3 L 306.5 228.3 L 313.0 263.0 L 291.3 271.7 L 269.6 271.7 L 243.5 263.0 L 202.2 234.8 L 184.8 230.4 L 134.8 189.1 L 63.0 152.2 Z M -163.0 71.7 L -156.5 191.3 L -163.0 206.5 L -258.7 241.3 L -317.4 241.3 L -332.6 230.4 L -343.5 215.2 L -347.8 184.8 L -332.6 154.3 L -313.0 134.8 L -260.9 113.0 L -197.8 76.1 Z M -97.8 71.7 L 13.0 69.6 L 69.6 78.3 L 21.7 106.5 L -10.9 119.6 L -73.9 89.1 Z M -147.8 193.5 L -152.2 84.8 L -147.8 67.4 L -121.7 69.6 L -19.6 126.1 L -139.1 195.7 Z M 143.5 65.2 L 110.9 65.2 L 130.4 54.3 Z M 0.0 58.7 L -23.9 58.7 L -8.7 54.3 Z M -160.9 52.2 L -158.7 58.7 L -171.7 65.2 Z M -60.9 41.3 L -34.8 43.5 L -26.1 39.1 L -2.2 45.7 L -43.5 52.2 L -58.7 50.0 Z M 84.8 13.0 L 119.6 45.7 L 87.0 67.4 L 80.4 65.2 Z M -10.9 2.2 L 10.9 2.2 L 15.2 6.5 L 17.4 26.1 L 13.0 39.1 L -8.7 32.6 L -6.5 13.0 L -13.0 6.5 Z M -45.7 0.0 L -32.6 2.2 L -41.3 13.0 L -28.3 17.4 L -21.7 15.2 L -26.1 6.5 L -17.4 8.7 L -17.4 34.8 L -23.9 32.6 L -26.1 21.7 L -34.8 19.6 L -41.3 23.9 L -32.6 28.3 L -34.8 37.0 L -45.7 39.1 L -52.2 32.6 L -50.0 4.3 Z M -69.6 -2.2 L -76.1 17.4 L -71.7 21.7 L -73.9 37.0 L -67.4 58.7 L -110.9 60.9 L -145.7 43.5 L -73.9 -4.3 Z M 28.3 -8.7 L 32.6 15.2 L 28.3 50.0 L 13.0 54.3 L 4.3 45.7 L 21.7 45.7 L 23.9 4.3 L 19.6 -4.3 Z M 487.0 30.4 L 487.0 50.0 L 469.6 78.3 L 454.3 82.6 L 373.9 80.4 L 339.1 69.6 L 163.0 67.4 L 141.3 47.8 L 230.4 -13.0 L 282.6 -4.3 L 328.3 -17.4 L 454.3 -4.3 L 473.9 10.9 Z M 87.0 -4.3 L 89.1 -19.6 L 128.3 -13.0 L 213.0 -13.0 L 132.6 39.1 Z M -58.7 -13.0 L -21.7 -34.8 L 37.0 -28.3 L 73.9 0.0 L 69.6 65.2 L 26.1 60.9 L 37.0 54.3 L 39.1 2.2 L 34.8 -17.4 L 19.6 -10.9 Z M -2.2 -43.5 L 8.7 -47.8 L 17.4 -41.3 L 6.5 -39.1 Z M -143.5 23.9 L -145.7 2.2 L -134.8 -47.8 L -41.3 -37.0 L -82.6 -13.0 L -137.0 26.1 Z M -315.2 -60.9 L -300.0 -63.0 L -234.8 -54.3 L -243.5 -52.2 L -150.0 -50.0 L -147.8 -32.6 L -156.5 4.3 L -156.5 34.8 L -169.6 34.8 L -237.0 -13.0 L -306.5 -54.3 L -284.8 -56.5 L -308.7 -54.3 Z M 76.1 -100.0 L 73.9 -82.6 L 80.4 -67.4 L 76.1 -30.4 L 50.0 -32.6 L 19.6 -54.3 L 47.8 -71.7 Z M -121.7 -123.9 L -6.5 -54.3 L -21.7 -45.7 L -132.6 -56.5 L -130.4 -91.3 Z M 319.6 -221.7 L 328.3 -204.3 L 326.1 -160.9 L 304.3 -80.4 L 226.1 -21.7 L 137.0 -19.6 L 89.1 -30.4 L 87.0 -108.7 L 119.6 -128.3 L 165.2 -171.7 L 213.0 -204.3 L 241.3 -213.0 L 276.1 -234.8 L 293.5 -234.8 Z M -430.4 -310.9 L -413.0 -328.3 L -371.7 -328.3 L -317.4 -300.0 L -234.8 -230.4 L -154.3 -150.0 L -130.4 -132.6 L -145.7 -60.9 L -150.0 -56.5 L -330.4 -71.7 L -393.5 -137.0 L -428.3 -202.2 L -439.1 -260.9 L -439.1 -287.0 Z M -23.9 -332.6 L -15.2 -332.6 L 8.7 -313.0 L 43.5 -265.2 L 54.3 -230.4 L 71.7 -110.9 L 41.3 -80.4 L 8.7 -60.9 L -119.6 -139.1 L -108.7 -184.8 L -97.8 -206.5 L -100.0 -213.0 L -95.7 -213.0 L -97.8 -221.7 L -93.5 -219.6 L -95.7 -228.3 L -91.3 -226.1 L -93.5 -232.6 L -47.8 -315.2 Z
" />
</svg>
