<svg xmlns="http://www.w3.org/2000/svg" viewBox="-500 -500 1000 1000" width="100%" height="100%">
  <path fill="currentColor" fill-rule="evenodd" d="
M -34.2 249.0 L -30.1 292.5 L -19.7 294.6 L -11.4 251.0 Z M 258.3 336.1 L 227.2 342.3 L 191.9 340.2 L 121.4 302.9 L 79.9 275.9 L 61.2 257.3 L 46.7 217.8 L 57.1 249.0 L 55.0 263.5 L 79.9 292.5 L 102.7 300.8 L 173.2 342.3 L 148.3 336.1 L 79.9 300.8 L 63.3 298.8 L 65.4 348.5 L 61.2 379.7 L 50.8 400.4 L 40.5 317.4 L 52.9 253.1 L 42.5 219.9 L 36.3 217.8 L 34.2 242.7 L 40.5 278.0 L 32.2 294.6 L 30.1 315.4 L 36.3 404.6 L 23.9 433.6 L 28.0 473.0 L 32.2 477.2 L 40.5 473.0 L 40.5 439.8 L 52.9 423.2 L 71.6 379.7 L 77.8 313.3 L 177.4 358.9 L 221.0 361.0 L 247.9 350.6 L 258.3 342.3 Z M -376.6 350.6 L -376.6 358.9 L -370.3 363.1 L -337.1 361.0 L -216.8 286.3 L -187.8 278.0 L -167.0 278.0 L -133.8 315.4 L -127.6 329.9 L -123.4 390.0 L -102.7 458.5 L -79.9 485.5 L -46.7 497.9 L -36.3 497.9 L -34.2 493.8 L -69.5 466.8 L -90.2 425.3 L -94.4 332.0 L -123.4 284.2 L -129.7 263.5 L -127.6 205.4 L -173.2 244.8 L -264.5 269.7 L -333.0 336.1 L -351.7 346.5 Z M -297.7 317.4 L -272.8 290.5 L -247.9 273.9 L -221.0 261.4 L -202.3 261.4 L -177.4 253.1 L -140.0 230.3 L -138.0 275.9 L -102.7 344.4 L -102.7 412.9 L -92.3 450.2 L -96.5 450.2 L -104.8 431.5 L -111.0 404.6 L -119.3 323.7 L -162.9 267.6 L -218.9 275.9 L -260.4 296.7 L -295.6 321.6 Z M 63.3 122.4 L 46.7 143.2 L 50.8 166.0 L 57.1 172.2 L 63.3 172.2 L 77.8 157.7 L 77.8 149.4 Z M -119.3 114.1 L -123.4 139.0 L -111.0 157.7 L -98.5 163.9 L -92.3 136.9 Z M 113.1 103.7 L 115.1 116.2 L 138.0 118.3 L 154.6 126.6 L 210.6 190.9 L 279.0 222.0 L 293.6 236.5 L 306.0 263.5 L 299.8 282.2 L 301.9 290.5 L 312.2 284.2 L 320.5 251.0 L 320.5 230.3 L 308.1 203.3 L 289.4 182.6 L 245.9 163.9 L 231.3 143.2 L 252.1 120.3 L 266.6 62.2 L 291.5 39.4 L 289.4 35.3 L 274.9 35.3 L 258.3 43.6 L 241.7 60.2 L 221.0 114.1 L 196.1 110.0 L 154.6 93.4 Z M 113.1 105.8 L 119.3 101.7 L 119.3 105.8 L 135.9 107.9 L 115.1 110.0 Z M 138.0 105.8 L 146.3 101.7 L 187.8 118.3 L 202.3 116.2 L 204.4 120.3 L 200.2 114.1 L 204.4 112.0 L 208.5 122.4 L 225.1 120.3 L 237.6 95.4 L 235.5 80.9 L 254.1 60.2 L 256.2 66.4 L 247.9 83.0 L 245.9 105.8 L 237.6 122.4 L 216.8 134.9 L 216.8 143.2 L 237.6 174.3 L 258.3 178.4 L 283.2 192.9 L 297.7 207.5 L 303.9 228.2 L 299.8 230.3 L 270.7 201.2 L 243.8 197.1 L 223.0 186.7 L 167.0 122.4 Z M -156.6 29.0 L -146.3 76.8 L -152.5 172.2 L -123.4 174.3 L -73.7 207.5 L -61.2 205.4 L -59.1 213.7 L -52.9 215.8 L -57.1 182.6 L -90.2 101.7 L -127.6 49.8 L -146.3 31.1 Z M -138.0 58.1 L -96.5 110.0 L -69.5 176.3 L -65.4 201.2 L -113.1 168.0 L -146.3 161.8 L -138.0 145.2 Z M 13.5 4.1 L -11.4 27.0 L -9.3 37.3 L 7.3 39.4 L 19.7 35.3 Z M -23.9 -12.4 L -32.2 -6.2 L -25.9 2.1 L -17.6 -2.1 L -17.6 -8.3 Z M -206.4 -2.1 L -200.2 12.4 L -183.6 18.7 L -173.2 14.5 L -181.5 6.2 L -177.4 -12.4 Z M -357.9 -35.3 L -357.9 -16.6 L -333.0 14.5 L -295.6 35.3 L -264.5 39.4 L -247.9 47.7 L -204.4 101.7 L -227.2 110.0 L -316.4 107.9 L -347.5 118.3 L -324.7 112.0 L -274.9 110.0 L -266.6 112.0 L -264.5 118.3 L -223.0 120.3 L -233.4 118.3 L -196.1 116.2 L -200.2 114.1 L -187.8 110.0 L -187.8 101.7 L -241.7 37.3 L -308.1 14.5 L -289.4 14.5 L -287.3 8.3 L -274.9 8.3 L -270.7 12.4 L -277.0 16.6 L -256.2 18.7 L -227.2 31.1 L -202.3 60.2 L -183.6 93.4 L -162.9 110.0 L -200.2 132.8 L -264.5 124.5 L -283.2 118.3 L -264.5 126.6 L -310.2 126.6 L -339.2 134.9 L -349.6 132.8 L -337.1 124.5 L -349.6 126.6 L -382.8 151.5 L -378.6 141.1 L -391.1 157.7 L -389.0 170.1 L -364.1 153.5 L -308.1 134.9 L -279.0 132.8 L -191.9 143.2 L -156.6 118.3 L -154.6 99.6 L -169.1 89.2 L -223.0 18.7 L -262.4 4.1 L -322.6 -4.1 L -339.2 -16.6 L -351.7 -35.3 Z M -67.4 -47.7 L -73.7 -39.4 L -65.4 -14.5 L -55.0 -10.4 L -59.1 -6.2 L -55.0 6.2 L -61.2 12.4 L -59.1 39.4 L -63.3 35.3 L -63.3 45.6 L -52.9 47.7 L -36.3 41.5 L -34.2 31.1 L -55.0 6.2 L -19.7 29.0 L 5.2 2.1 L 7.3 -8.3 L -23.9 -37.3 L -34.2 -35.3 L -40.5 -27.0 L -42.5 -41.5 Z M -38.4 35.3 L -55.0 39.4 L -42.5 31.1 Z M -25.9 -24.9 L -5.2 -6.2 L -23.9 14.5 L -42.5 -6.2 Z M -13.5 -41.5 L -11.4 -33.2 L 7.3 -18.7 L 13.5 -18.7 L 17.6 -24.9 L 17.6 -45.6 L 5.2 -49.8 Z M 52.9 -153.5 L 46.7 -145.2 L 46.7 -128.6 L 59.1 -105.8 L 67.4 -105.8 L 75.7 -132.8 Z M 119.3 -91.3 L 121.4 -83.0 L 160.8 -91.3 L 191.9 -85.1 L 250.0 -39.4 L 289.4 0.0 L 335.1 10.4 L 355.8 20.7 L 384.9 68.5 L 397.3 66.4 L 393.2 31.1 L 376.6 0.0 L 353.7 -16.6 L 312.2 -22.8 L 287.3 -62.2 L 260.4 -83.0 L 270.7 -110.0 L 297.7 -139.0 L 339.2 -157.7 L 353.7 -157.7 L 362.0 -163.9 L 360.0 -170.1 L 318.5 -174.3 L 272.8 -159.8 L 256.2 -143.2 L 235.5 -101.7 L 189.8 -126.6 L 181.5 -126.6 L 148.3 -112.0 L 127.6 -93.4 Z M 314.3 -4.1 L 324.7 -8.3 L 347.5 -6.2 L 368.3 14.5 L 337.1 0.0 Z M 158.7 -97.5 L 179.5 -97.5 Z M 303.9 -10.4 L 299.8 -8.3 L 272.8 -29.0 L 272.8 -37.3 L 262.4 -49.8 L 216.8 -85.1 L 177.4 -101.7 L 148.3 -99.6 L 167.0 -112.0 L 187.8 -114.1 L 227.2 -91.3 L 241.7 -91.3 L 266.6 -141.1 L 283.2 -153.5 L 310.2 -159.8 L 262.4 -116.2 L 247.9 -87.1 L 252.1 -70.5 L 274.9 -58.1 Z M 322.6 -159.8 L 324.7 -163.9 L 345.4 -161.8 Z M -55.0 -217.8 L -102.7 -195.0 L -164.9 -178.4 L -150.4 -116.2 L -150.4 -89.2 L -162.9 -37.3 L -148.3 -41.5 L -104.8 -89.2 L -55.0 -186.7 Z M -65.4 -201.2 L -67.4 -186.7 L -98.5 -128.6 L -100.6 -151.5 L -106.8 -159.8 L -123.4 -155.6 L -129.7 -147.3 L -125.5 -122.4 L -115.1 -122.4 L -100.6 -130.7 L -98.5 -124.5 L -115.1 -93.4 L -150.4 -53.9 L -140.0 -114.1 L -144.2 -141.1 L -156.6 -172.2 L -96.5 -186.7 Z M -28.0 -234.4 L -34.2 -228.2 L -40.5 -190.9 L -59.1 -153.5 L -59.1 -145.2 L -98.5 -74.7 L -150.4 -20.7 L -173.2 -4.1 L -173.2 2.1 L -133.8 31.1 L -111.0 56.0 L -63.3 141.1 L -34.2 234.4 L -15.6 242.7 L -1.0 192.9 L -1.0 217.8 L 5.2 219.9 L 67.4 184.6 L 86.1 182.6 L 104.8 172.2 L 92.3 107.9 L 98.5 53.9 L 96.5 35.3 L 67.4 62.2 L 15.6 153.5 L 13.5 147.3 L 63.3 53.9 L 108.9 4.1 L 111.0 -8.3 L 123.4 -2.1 L 113.1 6.2 L 117.2 12.4 L 133.8 10.4 L 150.4 -8.3 L 144.2 -16.6 L 125.5 -24.9 L 113.1 -18.7 L 111.0 -8.3 L 77.8 -37.3 L 92.3 -35.3 L 98.5 -43.6 L 96.5 -97.5 L 108.9 -141.1 L 106.8 -159.8 L 65.4 -170.1 L 30.1 -190.9 L -5.2 -222.0 L -11.4 -213.7 L 5.2 -168.0 L 5.2 -151.5 L -15.6 -184.6 L -19.7 -226.1 Z M 3.1 136.9 L 5.2 143.2 L -7.3 174.3 L -7.3 159.8 Z M 86.1 58.1 L 82.0 105.8 L 92.3 168.0 L 48.8 184.6 L 11.4 207.5 L 9.3 201.2 L 21.8 161.8 L 63.3 87.1 Z M 59.1 39.4 L 59.1 47.7 L 40.5 72.6 L 5.2 139.0 L 3.1 132.8 L 25.9 80.9 L 46.7 47.7 Z M 44.6 -62.2 L 73.7 -24.9 L 96.5 -6.2 L 88.2 6.2 L 84.0 2.1 L 86.1 -6.2 L 44.6 -47.7 Z M 25.9 -122.4 L 34.2 -114.1 L 34.2 -103.7 L 23.9 -118.3 Z M -28.0 -143.2 L -11.4 -103.7 L 15.6 -70.5 L 17.6 -56.0 L 77.8 4.1 L 30.1 56.0 L -9.3 134.9 L -21.8 170.1 L -46.7 101.7 L -90.2 24.9 L -127.6 0.0 L -108.9 -22.8 L -96.5 -29.0 L -40.5 -110.0 Z M 9.3 -151.5 L 21.8 -134.9 L 19.7 -126.6 L 7.3 -147.3 Z M -11.4 -151.5 L 25.9 -99.6 L 42.5 -66.4 L 40.5 -62.2 L -5.2 -118.3 L -13.5 -145.2 Z M -28.0 -190.9 L -21.8 -174.3 L -34.2 -166.0 L -38.4 -139.0 L -55.0 -99.6 L -104.8 -33.2 L -142.1 -6.2 L -144.2 2.1 L -96.5 37.3 L -50.8 114.1 L -28.0 195.0 L -13.5 197.1 L -21.8 219.9 L -32.2 203.3 L -55.0 130.7 L -100.6 49.8 L -117.2 29.0 L -146.3 8.3 L -164.9 2.1 L -144.2 -10.4 L -96.5 -56.0 L -57.1 -124.5 Z M 9.3 -195.0 L 44.6 -170.1 L 94.4 -151.5 L 96.5 -141.1 L 86.1 -97.5 L 84.0 -56.0 L 71.6 -68.5 L 42.5 -122.4 L 30.1 -136.9 L 13.5 -172.2 Z M -393.2 -288.4 L -393.2 -275.9 L -374.5 -267.6 L -308.1 -211.6 L -274.9 -128.6 L -258.3 -116.2 L -250.0 -118.3 L -239.6 -112.0 L -258.3 -95.4 L -337.1 -87.1 L -326.8 -83.0 L -330.9 -78.8 L -351.7 -78.8 L -347.5 -85.1 L -376.6 -76.8 L -393.2 -58.1 L -393.2 -43.6 L -401.5 -33.2 L -399.4 -27.0 L -372.4 -51.9 L -349.6 -62.2 L -272.8 -60.2 L -229.3 -74.7 L -223.0 -80.9 L -160.8 -97.5 L -160.8 -103.7 L -181.5 -122.4 L -237.6 -151.5 L -252.1 -166.0 L -268.7 -195.0 L -277.0 -222.0 L -299.8 -251.0 L -341.3 -278.0 L -372.4 -288.4 Z M -351.7 -263.5 L -333.0 -259.3 L -291.5 -228.2 L -264.5 -168.0 L -241.7 -141.1 L -179.5 -105.8 L -225.1 -93.4 L -266.6 -74.7 L -303.9 -72.6 L -301.9 -78.8 L -241.7 -89.2 L -214.7 -107.9 L -212.7 -120.3 L -250.0 -126.6 L -266.6 -136.9 L -281.1 -159.8 L -293.6 -213.7 L -312.2 -234.4 Z M 59.1 -483.4 L 65.4 -458.5 L 63.3 -437.8 L 36.3 -383.8 L 38.4 -369.3 L 59.1 -340.2 L 65.4 -319.5 L 59.1 -282.2 L 42.5 -246.9 L 42.5 -205.4 L 48.8 -203.3 L 63.3 -228.2 L 98.5 -267.6 L 121.4 -273.9 L 144.2 -269.7 L 169.1 -253.1 L 208.5 -238.6 L 233.4 -238.6 L 250.0 -244.8 L 270.7 -273.9 L 279.0 -313.3 L 279.0 -356.8 L 295.6 -371.4 L 295.6 -377.6 L 279.0 -383.8 L 262.4 -377.6 L 245.9 -361.0 L 241.7 -340.2 L 250.0 -309.1 L 243.8 -296.7 L 221.0 -280.1 L 191.9 -284.2 L 171.2 -294.6 L 146.3 -315.4 L 133.8 -319.5 L 117.2 -317.4 L 84.0 -365.1 L 79.9 -385.9 L 84.0 -417.0 L 79.9 -471.0 L 67.4 -485.5 Z M 71.6 -439.8 L 75.7 -439.8 L 69.5 -410.8 L 69.5 -373.4 L 82.0 -344.4 L 96.5 -329.9 L 104.8 -307.1 L 117.2 -302.9 L 125.5 -309.1 L 135.9 -309.1 L 181.5 -275.9 L 214.7 -267.6 L 229.3 -271.8 L 256.2 -294.6 L 258.3 -317.4 L 252.1 -348.5 L 272.8 -369.3 L 266.6 -292.5 L 256.2 -267.6 L 241.7 -257.3 L 212.7 -249.0 L 177.4 -259.3 L 142.1 -280.1 L 111.0 -280.1 L 75.7 -263.5 L 65.4 -253.1 L 57.1 -228.2 L 48.8 -219.9 L 48.8 -242.7 L 67.4 -284.2 L 73.7 -317.4 L 69.5 -344.4 L 50.8 -365.1 L 46.7 -381.7 Z M -175.3 -500.0 L -198.1 -493.8 L -200.2 -487.6 L -179.5 -483.4 L -160.8 -471.0 L -138.0 -448.1 L -113.1 -406.6 L -115.1 -367.2 L -154.6 -271.8 L -223.0 -294.6 L -322.6 -317.4 L -368.3 -350.6 L -370.3 -363.1 L -376.6 -367.2 L -382.8 -363.1 L -382.8 -348.5 L -368.3 -313.3 L -341.3 -286.3 L -308.1 -271.8 L -266.6 -263.5 L -239.6 -263.5 L -214.7 -255.2 L -179.5 -236.5 L -129.7 -197.1 L -125.5 -201.2 L -129.7 -234.4 L -123.4 -261.4 L -102.7 -305.0 L -88.2 -354.8 L -86.1 -433.6 L -98.5 -460.6 L -125.5 -483.4 L -144.2 -493.8 Z M -104.8 -446.1 L -96.5 -423.2 L -98.5 -361.0 L -104.8 -329.9 L -133.8 -263.5 L -140.0 -215.8 L -175.3 -246.9 L -225.1 -271.8 L -306.0 -284.2 L -330.9 -294.6 L -353.7 -315.4 L -353.7 -323.7 L -318.5 -302.9 L -243.8 -288.4 L -150.4 -257.3 L -142.1 -265.6 L -135.9 -294.6 L -111.0 -346.5 L -102.7 -379.7 L -106.8 -431.5 L -142.1 -475.1 L -138.0 -477.2 L -123.4 -466.8 Z
" />
</svg>
