<svg xmlns="http://www.w3.org/2000/svg" viewBox="-500 -500 1000 1000" width="100%" height="100%">
  <path fill="currentColor" fill-rule="evenodd" d="
M -36.5 -500.0 L -69.7 -480.1 L -83.0 -455.8 L -80.8 -442.5 L -65.3 -413.7 L -38.7 -398.2 L -7.7 -407.1 L 5.5 -429.2 L -1.1 -449.1 L -29.9 -453.5 L -36.5 -446.9 L -36.5 -438.1 L -23.2 -427.0 L -27.7 -422.6 L -38.7 -424.8 L -56.4 -451.3 L -47.6 -462.4 L -32.1 -464.6 L -29.9 -469.0 L -5.5 -466.8 L 12.2 -438.1 L 16.6 -389.4 L -7.7 -387.2 L -21.0 -380.5 L -34.3 -367.3 L -45.4 -342.9 L -43.1 -320.8 L -34.3 -311.9 L -7.7 -303.1 L 14.4 -320.8 L 14.4 -329.6 L 10.0 -334.1 L -14.4 -331.9 L -21.0 -338.5 L -18.8 -345.1 L -3.3 -358.4 L 23.2 -354.0 L 27.7 -300.9 L 25.4 -285.4 L 5.5 -250.0 L -5.5 -256.6 L -14.4 -254.4 L -12.2 -250.0 L -40.9 -212.4 L -52.0 -219.0 L -80.8 -216.8 L -105.1 -194.7 L -151.5 -172.6 L -175.9 -146.0 L -198.0 -104.0 L -231.2 -97.3 L -209.1 -57.5 L -217.9 -44.2 L -226.8 4.4 L -302.0 11.1 L -306.4 6.6 L -306.4 -13.3 L -324.1 -37.6 L -341.8 -44.2 L -377.2 -44.2 L -392.7 -26.5 L -388.3 -11.1 L -370.6 -4.4 L -366.2 -17.7 L -359.5 -24.3 L -350.7 -24.3 L -333.0 -8.8 L -328.5 4.4 L -339.6 11.1 L -366.2 11.1 L -412.6 26.5 L -474.6 77.4 L -481.2 99.6 L -479.0 128.3 L -454.6 163.7 L -432.5 168.1 L -392.7 165.9 L -368.4 148.2 L -357.3 128.3 L -370.6 73.0 L -381.6 64.2 L -406.0 64.2 L -434.7 79.6 L -441.4 88.5 L -443.6 117.3 L -428.1 137.2 L -410.4 135.0 L -392.7 119.5 L -397.1 110.6 L -417.0 110.6 L -417.0 101.8 L -408.2 92.9 L -397.1 90.7 L -386.1 101.8 L -381.6 112.8 L -383.8 132.7 L -399.3 141.6 L -436.9 143.8 L -456.9 119.5 L -456.9 95.1 L -441.4 75.2 L -383.8 39.8 L -341.8 35.4 L -337.4 31.0 L -242.3 28.8 L -240.0 35.4 L -248.9 46.5 L -244.5 59.7 L -260.0 55.3 L -268.8 39.8 L -288.7 57.5 L -288.7 70.8 L -275.4 81.9 L -257.7 81.9 L -244.5 75.2 L -213.5 35.4 L -209.1 42.0 L -215.7 57.5 L -213.5 88.5 L -204.6 110.6 L -189.2 128.3 L -204.6 143.8 L -189.2 146.0 L -198.0 152.7 L -184.7 152.7 L -186.9 161.5 L -173.7 168.1 L -160.4 194.7 L -131.6 212.4 L -105.1 221.2 L -80.8 221.2 L -80.8 243.4 L -71.9 247.8 L -67.5 245.6 L -69.7 236.7 L -63.1 234.5 L -58.6 245.6 L -69.7 261.1 L -85.2 307.5 L -111.7 307.5 L -149.3 329.6 L -167.0 365.0 L -164.8 385.0 L -147.1 402.7 L -127.2 398.2 L -113.9 382.7 L -111.7 371.7 L -122.8 354.0 L -136.1 354.0 L -138.3 349.6 L -111.7 327.4 L -91.8 323.0 L -89.6 329.6 L -98.5 327.4 L -91.8 340.7 L -107.3 409.3 L -96.2 475.7 L -78.5 486.7 L -43.1 497.8 L -12.2 493.4 L 5.5 482.3 L 18.8 464.6 L 25.4 440.3 L 23.2 429.2 L 5.5 404.9 L -18.8 382.7 L -45.4 385.0 L -67.5 396.0 L -74.1 407.1 L -76.3 427.0 L -83.0 424.8 L -71.9 329.6 L -65.3 327.4 L -43.1 338.5 L -25.4 338.5 L 5.5 318.6 L 14.4 296.5 L 14.4 274.3 L 7.7 261.1 L -7.7 250.0 L -23.2 250.0 L -40.9 267.7 L -43.1 294.2 L -34.3 300.9 L -21.0 298.7 L -21.0 276.5 L -16.6 272.1 L -7.7 294.2 L -23.2 311.9 L -49.8 309.7 L -45.4 307.5 L -56.4 278.8 L -27.7 230.1 L -29.9 221.2 L -38.7 219.0 L -32.1 208.0 L -14.4 199.1 L 14.4 208.0 L 52.0 201.3 L 98.5 177.0 L 122.8 170.4 L 151.5 141.6 L 158.2 123.9 L 175.9 119.5 L 178.1 112.8 L 169.2 95.1 L 180.3 79.6 L 184.7 42.0 L 173.7 37.6 L 178.1 26.5 L 231.2 53.1 L 275.4 64.2 L 273.2 101.8 L 279.9 123.9 L 293.1 141.6 L 310.8 141.6 L 328.5 121.7 L 328.5 106.2 L 321.9 97.3 L 308.6 99.6 L 304.2 108.4 L 299.8 101.8 L 299.8 88.5 L 308.6 73.0 L 330.8 81.9 L 432.5 77.4 L 467.9 46.5 L 479.0 28.8 L 474.6 -17.7 L 459.1 -48.7 L 410.4 -73.0 L 386.1 -73.0 L 352.9 -55.3 L 344.0 -44.2 L 339.6 -11.1 L 357.3 22.1 L 372.8 37.6 L 406.0 48.7 L 399.3 55.3 L 341.8 53.1 L 315.3 44.2 L 286.5 42.0 L 260.0 31.0 L 246.7 6.6 L 255.5 -6.6 L 260.0 2.2 L 273.2 2.2 L 279.9 -6.6 L 279.9 -17.7 L 268.8 -31.0 L 246.7 -35.4 L 233.4 -24.3 L 224.6 -8.8 L 220.1 15.5 L 206.9 -4.4 L 191.4 -11.1 L 184.7 -22.1 L 191.4 -28.8 L 182.5 -75.2 L 202.4 -110.6 L 202.4 -121.7 L 191.4 -115.0 L 184.7 -130.5 L 151.5 -143.8 L 153.8 -172.6 L 147.1 -188.1 L 131.6 -196.9 L 109.5 -221.2 L 98.5 -216.8 L 87.4 -230.1 L 58.6 -238.9 L 45.4 -234.5 L 27.7 -236.7 L 47.6 -272.1 L 52.0 -298.7 L 47.6 -356.2 L 38.7 -358.4 L 38.7 -369.5 L 45.4 -373.9 L 49.8 -369.5 L 47.6 -360.6 L 54.2 -371.7 L 76.3 -387.2 L 89.6 -413.7 L 85.2 -440.3 L 74.1 -451.3 L 54.2 -451.3 L 38.7 -438.1 L 25.4 -469.0 L 10.0 -488.9 L -10.0 -497.8 Z M -69.7 422.6 L -65.3 429.2 L -69.7 444.7 Z M -25.4 407.1 L -1.1 438.1 L 5.5 433.6 L -5.5 464.6 L -16.6 475.7 L -47.6 477.9 L -60.8 466.8 L -25.4 460.2 L -14.4 440.3 L -16.6 429.2 L -38.7 440.3 L -52.0 438.1 L -43.1 411.5 Z M -40.9 389.4 L -23.2 387.2 L -14.4 393.8 Z M -113.9 205.8 L -109.5 199.1 L -91.8 210.2 L -96.2 214.6 Z M 10.0 192.5 L 18.8 194.7 L 18.8 188.1 L 27.7 196.9 L 21.0 201.3 Z M -80.8 179.2 L -78.5 194.7 L -91.8 199.1 L -94.0 194.7 Z M -147.1 168.1 L -129.4 168.1 L -118.4 161.5 L -107.3 188.1 L -136.1 183.6 Z M 71.9 168.1 L 29.9 188.1 L -1.1 181.4 L 3.3 174.8 L 14.4 172.6 L 34.3 150.4 Z M -83.0 137.2 L -85.2 165.9 L -98.5 146.0 Z M -85.2 126.1 L -83.0 130.5 L -102.9 146.0 L -105.1 141.6 Z M 131.6 121.7 L 129.4 132.7 L 98.5 157.1 L 96.2 141.6 L 102.9 121.7 L 109.5 115.0 Z M -158.2 112.8 L -156.0 119.5 L -164.8 130.5 L -167.0 126.1 Z M 49.8 110.6 L 71.9 106.2 L 89.6 117.3 L 71.9 143.8 L 45.4 126.1 Z M 375.0 68.6 L 397.1 68.6 Z M -16.6 59.7 L 3.3 79.6 L 23.2 79.6 L 14.4 88.5 L 23.2 99.6 L 23.2 121.7 L 16.6 139.4 L 1.1 157.1 L -3.3 154.9 L -1.1 139.4 L -5.5 132.7 L -12.2 135.0 L -23.2 154.9 L -29.9 141.6 L -52.0 148.2 L -45.4 112.8 L -58.6 104.0 L -58.6 92.9 L -43.1 75.2 Z M -191.4 55.3 L -160.4 77.4 L -171.5 108.4 L -193.6 81.9 L -195.8 59.7 Z M -109.5 39.8 L -102.9 44.2 L -89.6 39.8 L -65.3 48.7 L -76.3 86.3 L -91.8 110.6 L -113.9 108.4 L -120.6 101.8 L -120.6 84.1 L -136.1 81.9 L -133.8 66.4 Z M 419.2 33.2 L 408.2 39.8 L 399.3 37.6 L 401.5 33.2 Z M -32.1 24.3 L -32.1 35.4 L -49.8 53.1 L -52.0 48.7 L -43.1 37.6 L -45.4 31.0 Z M 211.3 22.1 L 217.9 19.9 L 231.2 26.5 L 224.6 28.8 Z M 167.0 19.9 L 169.2 24.3 L 153.8 39.8 L 171.5 48.7 L 158.2 57.5 L 147.1 37.6 Z M -173.7 37.6 L -164.8 17.7 L -147.1 28.8 L -131.6 26.5 L -122.8 35.4 L -107.3 33.2 L -118.4 42.0 L -133.8 44.2 L -147.1 64.2 Z M 122.8 8.8 L 131.6 17.7 L 125.0 35.4 L 136.1 50.9 L 131.6 55.3 L 113.9 50.9 L 107.3 57.5 L 107.3 75.2 L 98.5 81.9 L 94.0 97.3 L 74.1 95.1 L 58.6 99.6 L 47.6 92.9 L 38.7 81.9 L 54.2 44.2 L 52.0 26.5 L 76.3 17.7 L 85.2 6.6 L 98.5 15.5 L 107.3 15.5 L 113.9 6.6 Z M 388.3 13.3 L 403.8 2.2 L 414.8 8.8 L 414.8 15.5 L 406.0 19.9 Z M 89.6 2.2 L 109.5 2.2 L 102.9 6.6 Z M -38.7 0.0 L -58.6 26.5 L -76.3 17.7 L -67.5 0.0 Z M 29.9 -6.6 L 40.9 -8.8 L 52.0 -2.2 L 43.1 2.2 Z M -29.9 0.0 L -16.6 -6.6 L -7.7 0.0 L 5.5 -8.8 L 10.0 8.8 L 34.3 24.3 L 29.9 50.9 L 14.4 48.7 L -1.1 28.8 L -7.7 8.8 L -18.8 6.6 L -23.2 13.3 Z M 248.9 -11.1 L 246.7 15.5 L 242.3 17.7 L 242.3 -2.2 Z M 18.8 -19.9 L 21.0 -13.3 L 10.0 -6.6 L 10.0 -15.5 Z M 151.5 -22.1 L 158.2 0.0 L 173.7 11.1 L 164.8 11.1 L 144.9 31.0 L 149.3 22.1 L 138.3 2.2 Z M -189.2 -26.5 L -173.7 11.1 L -193.6 28.8 L -202.4 6.6 L -200.2 -13.3 Z M 375.0 -44.2 L 392.7 -44.2 L 397.1 -48.7 L 432.5 -37.6 L 452.4 -13.3 L 452.4 19.9 L 430.3 46.5 L 423.7 44.2 L 434.7 33.2 L 441.4 15.5 L 436.9 -4.4 L 421.5 -19.9 L 419.2 -15.5 L 412.6 -26.5 L 403.8 -26.5 L 377.2 2.2 L 363.9 -17.7 L 363.9 -28.8 Z M 21.0 -59.7 L 23.2 -55.3 L 7.7 -33.2 L 3.3 -42.0 Z M -58.6 -70.8 L -54.2 -64.2 L -56.4 -48.7 Z M -54.2 -79.6 L -38.7 -73.0 L -36.5 -64.2 L -40.9 -61.9 L -25.4 -48.7 L -21.0 -22.1 L -34.3 -19.9 L -43.1 -24.3 L -40.9 -35.4 L -49.8 -50.9 Z M -87.4 -97.3 L -78.5 -84.1 L -78.5 -64.2 L -67.5 -28.8 L -89.6 -11.1 L -116.2 22.1 L -151.5 -4.4 L -133.8 -8.8 L -129.4 -19.9 L -156.0 -37.6 L -111.7 -39.8 L -113.9 -48.7 L -133.8 -53.1 L -140.5 -66.4 L -129.4 -68.6 L -122.8 -81.9 L -100.7 -81.9 L -98.5 -95.1 Z M 83.0 -121.7 L 91.8 -123.9 L 102.9 -110.6 L 89.6 -95.1 L 89.6 -86.3 L 109.5 -88.5 L 111.7 -75.2 L 105.1 -59.7 L 116.2 -33.2 L 140.5 -26.5 L 125.0 -8.8 L 125.0 -2.2 L 113.9 -13.3 L 89.6 -11.1 L 63.1 -26.5 L 45.4 -24.3 L 32.1 -33.2 L 47.6 -59.7 L 47.6 -88.5 Z M -87.4 -148.2 L -85.2 -117.3 L -107.3 -112.8 L -116.2 -104.0 L -118.4 -137.2 L -102.9 -148.2 L -98.5 -141.6 Z M -133.8 -159.3 L -127.2 -126.1 L -133.8 -106.2 L -142.7 -101.8 L -147.1 -106.2 L -175.9 -104.0 L -178.1 -108.4 L -158.2 -128.3 L -144.9 -159.3 Z M 49.8 -150.4 L 47.6 -121.7 L 36.5 -86.3 L 12.2 -79.6 L -1.1 -66.4 L -36.5 -95.1 L -63.1 -104.0 L -74.1 -126.1 L -74.1 -137.2 L -49.8 -168.1 L -47.6 -143.8 L -36.5 -143.8 L -29.9 -161.5 L -21.0 -168.1 L -18.8 -141.6 L -12.2 -137.2 L 1.1 -150.4 L 14.4 -148.2 L 32.1 -172.6 L 36.5 -154.9 Z M 96.2 -190.3 L 107.3 -152.7 L 120.6 -139.4 L 78.5 -128.3 L 69.7 -130.5 L 54.2 -121.7 L 60.8 -154.9 L 58.6 -170.4 L 52.0 -177.0 L 56.4 -181.4 L 65.3 -177.0 L 80.8 -179.2 Z M 116.2 -192.5 L 136.1 -174.8 L 129.4 -157.1 L 113.9 -185.8 Z M -52.0 -194.7 L -67.5 -185.8 L -78.5 -161.5 L -120.6 -161.5 L -71.9 -196.9 L -60.8 -199.1 Z M 47.6 -214.6 L 74.1 -212.4 L 85.2 -203.5 L 78.5 -196.9 L 63.1 -199.1 L 54.2 -192.5 Z M 21.0 -223.5 L 32.1 -214.6 L 29.9 -208.0 L 16.6 -219.0 Z
" />
</svg>
