<svg xmlns="http://www.w3.org/2000/svg" viewBox="-500 -500 1000 1000" width="100%" height="100%">
  <path fill="currentColor" fill-rule="evenodd" d="
M -216.6 115.3 L -219.1 118.5 L -216.6 134.2 L -217.0 147.9 L -212.2 162.0 L -207.8 164.4 L -197.3 162.8 L -190.4 163.6 L -186.0 162.0 L -182.4 157.2 L -182.8 154.4 L -186.8 152.8 L -191.3 152.4 L -202.5 152.8 L -204.6 149.9 L -203.7 147.5 L -195.7 146.7 L -191.3 141.1 L -192.1 138.7 L -194.9 137.0 L -205.0 136.2 L -206.2 135.0 L -206.2 127.4 L -205.4 126.6 L -192.5 126.6 L -189.6 123.7 L -188.0 119.3 L -195.3 116.1 L -201.7 116.1 L -211.4 114.1 Z M -262.6 109.2 L -265.4 112.5 L -265.4 114.9 L -262.2 124.5 L -262.2 149.9 L -258.6 154.4 L -253.7 154.4 L -245.3 156.8 L -237.2 154.4 L -233.6 150.7 L -227.9 139.1 L -227.1 124.5 L -231.6 116.1 L -236.4 112.5 L -246.9 108.4 L -254.1 108.0 L -257.0 109.2 Z M -251.3 119.7 L -246.9 119.7 L -244.1 120.9 L -240.8 123.7 L -239.6 126.2 L -239.6 137.0 L -240.4 140.3 L -243.7 145.5 L -248.5 145.1 L -251.3 143.1 L -250.9 133.4 L -252.1 120.5 Z M -327.5 113.7 L -329.5 120.9 L -331.9 138.7 L -334.3 143.5 L -334.3 147.9 L -331.5 150.3 L -326.7 149.9 L -322.2 144.3 L -320.6 143.5 L -314.2 143.5 L -311.4 142.3 L -310.2 143.1 L -308.9 148.3 L -305.7 154.4 L -302.1 154.8 L -297.7 153.2 L -296.5 156.0 L -292.4 157.6 L -284.0 158.0 L -271.1 157.6 L -268.2 155.2 L -266.2 151.6 L -266.2 148.7 L -268.6 147.1 L -275.9 147.1 L -276.7 146.3 L -278.7 123.3 L -278.3 120.5 L -272.7 120.5 L -269.4 118.1 L -267.8 114.9 L -267.8 112.5 L -269.0 111.2 L -273.9 110.0 L -298.1 110.0 L -302.5 111.6 L -304.1 113.3 L -303.7 118.9 L -300.1 121.3 L -292.4 120.5 L -290.4 122.1 L -287.6 145.9 L -295.6 147.9 L -300.5 135.8 L -308.9 119.3 L -311.4 110.4 L -314.2 108.0 L -319.4 107.6 Z M -318.6 126.6 L -316.2 131.0 L -317.0 133.0 L -320.2 132.6 Z M -400.4 105.6 L -401.7 108.4 L -400.4 118.5 L -400.8 145.5 L -397.2 150.7 L -392.8 152.4 L -388.8 152.4 L -383.9 151.1 L -377.1 151.1 L -373.8 149.1 L -372.2 143.5 L -373.8 141.5 L -381.9 140.7 L -389.2 141.9 L -390.0 141.1 L -390.0 135.8 L -389.2 135.0 L -380.7 135.0 L -377.9 133.8 L -375.9 131.8 L -375.1 128.6 L -378.7 125.8 L -388.8 124.5 L -390.0 122.9 L -390.4 115.7 L -388.8 113.7 L -373.0 114.1 L -369.0 110.0 L -367.8 110.4 L -365.4 120.9 L -365.4 124.5 L -363.8 130.2 L -363.4 145.1 L -362.2 148.3 L -358.9 151.1 L -354.9 151.1 L -353.7 150.3 L -342.0 149.1 L -337.6 145.1 L -336.8 140.3 L -340.8 137.8 L -351.3 138.3 L -353.3 133.8 L -356.9 107.2 L -359.7 105.2 L -364.6 105.2 L -368.6 108.0 L -370.2 105.6 L -373.8 104.0 L -396.8 102.8 Z M -431.1 98.8 L -439.1 103.6 L -442.0 108.0 L -442.0 111.6 L -440.3 114.1 L -441.2 143.1 L -435.9 147.9 L -423.0 148.3 L -414.6 144.7 L -407.3 138.3 L -404.1 129.0 L -404.5 112.5 L -405.7 106.8 L -409.3 102.0 L -419.8 98.8 Z M -428.3 108.0 L -423.8 108.0 L -417.4 110.4 L -416.2 111.6 L -416.2 114.9 L -415.4 115.7 L -414.6 128.6 L -415.8 131.8 L -418.2 134.2 L -425.8 137.4 L -429.5 137.4 L -431.1 134.2 L -430.7 110.0 Z M -458.9 95.5 L -462.5 96.7 L -465.7 96.3 L -468.6 98.3 L -471.0 102.0 L -471.0 107.2 L -474.6 120.9 L -478.2 128.2 L -479.0 131.8 L -479.0 136.2 L -477.4 137.8 L -471.0 137.0 L -469.8 135.8 L -468.6 129.8 L -466.1 127.4 L -456.5 126.6 L -454.1 132.2 L -451.6 134.2 L -446.0 134.2 L -443.6 132.2 L -446.4 118.9 L -450.8 105.6 L -452.8 101.6 Z M -460.9 110.4 L -459.3 110.8 L -459.3 113.7 L -457.7 117.3 L -458.5 118.5 L -464.1 117.7 Z M 499.6 89.1 L 497.2 89.1 L 497.6 91.9 Z M -92.5 -3.6 L -99.0 -3.6 L -106.2 -0.4 L -113.5 9.3 L -118.7 21.4 L -119.9 30.6 L -119.1 37.5 L -114.7 47.6 L -108.6 52.0 L -97.3 52.4 L -93.3 50.4 L -84.4 41.5 L -83.2 37.5 L -81.2 35.5 L -79.2 20.6 L -80.8 10.5 L -85.7 0.4 L -87.7 -1.6 Z M -94.5 7.7 L -92.9 8.9 L -90.9 14.1 L -90.5 20.6 L -91.3 25.8 L -94.1 32.6 L -97.7 38.3 L -101.8 41.9 L -103.4 41.9 L -107.0 39.1 L -108.2 35.9 L -107.8 26.2 L -101.8 12.9 L -96.9 7.7 Z M -29.2 -17.3 L -29.2 -14.5 L -24.0 -7.3 L -19.1 4.8 L -13.5 31.0 L -6.7 56.0 L -6.7 58.8 L -1.4 75.4 L 1.0 90.7 L 2.2 92.7 L 2.2 95.1 L 4.6 97.9 L 8.7 97.5 L 11.5 98.3 L 12.7 97.5 L 17.1 97.5 L 49.4 101.2 L 51.4 99.6 L 54.6 100.0 L 65.5 86.7 L 68.7 86.3 L 75.2 94.7 L 87.7 98.8 L 107.4 98.3 L 114.7 101.2 L 117.1 101.2 L 120.7 98.8 L 121.9 88.3 L 129.6 68.9 L 130.0 64.9 L 134.0 54.4 L 134.0 52.0 L 138.0 42.7 L 150.1 4.0 L 152.6 1.6 L 150.1 0.0 L 146.1 -5.2 L 142.9 -6.4 L 137.2 -6.9 L 133.2 -6.0 L 109.0 -7.7 L 105.4 -9.3 L 97.3 -8.5 L 93.3 -5.6 L 89.3 4.8 L 82.8 17.3 L 80.0 20.6 L 78.4 16.9 L 78.4 4.0 L 77.2 2.0 L 74.0 0.0 L 62.3 0.0 L 55.4 -3.2 L 48.6 -2.0 L 45.7 0.0 L 44.5 2.8 L 34.5 14.1 L 32.0 8.9 L 32.0 6.4 L 27.2 -8.1 L 26.8 -16.9 L 24.4 -20.6 L 20.4 -21.4 L 19.1 -20.6 L 7.1 -20.6 L 6.2 -19.8 L 2.2 -20.6 L -26.0 -21.0 Z M -15.9 -10.5 L -10.7 -10.9 L 13.9 -8.9 L 22.8 20.2 L 23.6 30.6 L 26.8 34.7 L 30.8 34.7 L 32.4 36.7 L 36.1 35.1 L 38.9 32.2 L 44.1 22.2 L 47.0 19.8 L 51.8 13.3 L 53.0 13.3 L 53.4 11.3 L 62.7 11.7 L 63.9 12.5 L 66.3 24.2 L 71.1 37.1 L 76.0 39.1 L 81.2 39.5 L 82.8 38.7 L 90.9 28.2 L 97.3 15.3 L 103.4 6.0 L 106.2 4.4 L 135.2 6.0 L 136.0 6.9 L 135.2 11.7 L 129.2 27.0 L 128.8 30.6 L 121.9 46.8 L 121.9 49.6 L 117.1 66.5 L 114.3 71.7 L 114.7 73.0 L 110.2 85.0 L 107.4 86.7 L 99.4 86.7 L 98.1 85.9 L 96.9 87.1 L 89.7 87.1 L 86.9 85.9 L 85.2 87.1 L 73.6 72.6 L 64.3 72.6 L 60.7 74.2 L 46.2 89.5 L 40.5 87.5 L 23.6 86.7 L 16.7 84.6 L 13.5 84.6 L 11.5 81.0 L 9.5 69.7 L 5.4 58.4 L -1.8 31.0 L -3.4 28.2 L -7.5 10.9 Z M -227.5 -31.4 L -231.6 -29.4 L -233.6 -26.2 L -232.0 -20.6 L -232.0 -14.1 L -232.8 -12.9 L -232.0 -3.6 L -232.4 7.7 L -228.7 11.7 L -225.5 11.7 L -221.1 13.3 L -210.2 12.9 L -204.6 10.9 L -198.9 6.0 L -196.1 -0.4 L -195.7 -12.1 L -199.3 -21.8 L -207.4 -29.4 L -212.2 -31.8 L -223.1 -32.6 Z M -221.1 -21.4 L -216.6 -21.8 L -211.8 -18.9 L -207.4 -13.3 L -207.4 -4.4 L -210.6 1.2 L -215.8 2.8 L -221.5 1.6 L -221.1 -11.3 L -221.9 -12.9 L -221.9 -20.6 Z M -90.5 -38.3 L -101.8 -37.9 L -108.6 -35.9 L -116.3 -31.8 L -128.8 -19.8 L -132.0 -15.7 L -141.7 5.2 L -143.7 14.1 L -144.9 26.6 L -146.1 28.6 L -145.7 37.1 L -146.5 37.9 L -144.9 53.6 L -133.6 76.2 L -129.2 81.0 L -113.1 86.3 L -110.6 86.3 L -110.2 87.1 L -91.3 86.7 L -84.0 84.6 L -78.4 81.8 L -71.9 75.0 L -67.1 67.3 L -56.6 45.9 L -51.4 28.6 L -50.6 9.3 L -53.0 -2.4 L -53.0 -6.4 L -57.8 -17.7 L -62.7 -24.2 L -74.0 -33.5 L -84.0 -37.1 Z M -87.7 -27.0 L -80.8 -24.2 L -69.5 -14.9 L -65.9 -8.9 L -63.9 -2.8 L -62.7 8.1 L -61.5 9.7 L -62.3 25.4 L -67.1 40.3 L -80.8 66.9 L -86.9 72.6 L -91.3 75.0 L -107.0 76.2 L -122.3 70.9 L -127.2 63.3 L -133.2 50.8 L -134.8 36.7 L -134.0 35.5 L -134.0 28.6 L -132.0 15.3 L -129.6 5.6 L -124.7 -5.6 L -113.1 -19.3 L -106.2 -24.2 L -96.9 -27.8 Z M -252.9 -52.4 L -254.9 -49.6 L -254.1 -45.5 L -254.5 -31.4 L -255.7 -24.2 L -254.9 24.2 L -255.7 26.2 L -256.1 62.1 L -257.0 77.8 L -257.8 79.8 L -257.0 85.0 L -257.8 94.7 L -252.9 97.9 L -229.9 97.9 L -226.3 97.1 L -224.7 95.1 L -225.1 89.1 L -219.5 65.3 L -213.8 70.1 L -196.9 89.9 L -194.1 95.1 L -185.6 95.9 L -183.6 94.7 L -176.3 94.7 L -172.7 92.7 L -165.5 91.5 L -163.4 89.1 L -164.7 83.4 L -167.9 80.2 L -173.1 72.1 L -191.3 39.1 L -195.7 34.3 L -194.9 32.6 L -187.2 32.2 L -183.2 30.6 L -173.1 23.4 L -169.5 19.8 L -162.6 6.0 L -161.4 -1.2 L -161.4 -10.1 L -163.4 -21.0 L -165.9 -26.2 L -165.5 -27.8 L -169.9 -37.1 L -183.6 -45.9 L -190.4 -48.8 L -195.3 -49.2 L -198.5 -50.8 L -204.2 -51.2 L -207.0 -52.4 L -217.9 -54.0 L -231.6 -53.6 L -233.6 -54.4 L -249.7 -54.0 Z M -247.7 -43.5 L -244.1 -44.3 L -224.3 -44.3 L -205.8 -41.9 L -187.6 -35.9 L -178.8 -29.0 L -176.3 -23.8 L -173.1 -10.5 L -173.5 -0.4 L -177.1 10.1 L -184.8 18.9 L -188.8 21.0 L -191.7 21.0 L -196.1 22.6 L -204.6 22.6 L -207.4 25.4 L -211.0 26.2 L -213.0 28.6 L -212.2 32.2 L -207.8 35.5 L -200.5 43.9 L -183.6 75.4 L -178.8 82.2 L -178.8 84.6 L -180.4 85.4 L -186.4 85.4 L -215.4 54.4 L -218.3 53.2 L -223.5 53.2 L -228.7 55.6 L -229.9 68.1 L -232.4 74.6 L -235.2 87.1 L -236.8 88.7 L -245.7 88.7 L -246.9 87.9 L -245.7 3.6 L -246.9 -11.7 L -246.5 -39.9 L -248.1 -42.7 Z M 433.1 -154.8 L 433.1 -153.2 L 435.5 -148.3 L 435.5 -141.1 L 433.9 -129.8 L 434.3 -117.7 L 433.1 -102.8 L 436.7 -98.8 L 454.1 -99.6 L 459.7 -97.9 L 464.9 -97.9 L 469.8 -101.6 L 469.4 -105.2 L 467.8 -106.4 L 460.1 -108.4 L 446.4 -108.4 L 445.2 -109.2 L 445.6 -122.9 L 444.8 -130.6 L 446.0 -137.4 L 445.2 -154.4 L 443.6 -156.4 L 440.3 -157.2 Z M 369.0 -160.0 L 365.8 -158.4 L 357.7 -133.8 L 354.5 -127.0 L 352.1 -117.7 L 350.9 -107.6 L 353.7 -104.0 L 355.3 -104.0 L 359.3 -106.4 L 363.8 -120.9 L 365.0 -122.1 L 377.5 -120.9 L 378.7 -118.1 L 379.1 -111.6 L 380.3 -109.2 L 380.3 -104.4 L 383.9 -101.2 L 386.7 -100.8 L 391.2 -104.4 L 391.6 -107.6 L 389.2 -115.3 L 388.4 -123.7 L 385.1 -132.6 L 385.1 -135.4 L 381.9 -146.7 L 375.1 -160.0 Z M 371.4 -146.7 L 372.6 -145.9 L 372.6 -143.5 L 374.2 -139.9 L 375.9 -131.8 L 375.1 -130.2 L 366.2 -131.4 L 369.0 -142.3 Z M 423.0 -157.6 L 407.7 -159.2 L 404.9 -160.4 L 399.6 -160.4 L 395.6 -158.4 L 396.0 -149.1 L 394.8 -144.3 L 394.0 -103.6 L 397.2 -100.4 L 401.7 -100.8 L 405.3 -103.6 L 405.7 -113.3 L 404.9 -121.7 L 406.1 -122.9 L 415.0 -122.5 L 417.4 -123.7 L 419.4 -127.0 L 418.6 -129.0 L 413.7 -131.0 L 405.3 -131.8 L 404.9 -136.6 L 406.1 -150.3 L 414.6 -150.7 L 425.8 -147.1 L 430.7 -151.6 L 430.7 -154.4 Z M 437.9 25.4 L 431.9 13.3 L 422.2 2.0 L 413.3 -6.4 L 405.7 -10.9 L 393.2 -23.0 L 384.3 -29.4 L 381.1 -33.9 L 372.6 -38.3 L 369.0 -38.7 L 360.9 -42.3 L 342.0 -47.6 L 337.2 -50.0 L 329.5 -51.6 L 323.9 -54.4 L 317.8 -56.0 L 309.4 -59.7 L 299.7 -65.3 L 297.3 -67.7 L 293.2 -73.8 L 293.2 -76.2 L 296.5 -79.8 L 301.3 -88.3 L 307.7 -93.9 L 312.6 -96.3 L 328.7 -101.2 L 331.1 -103.2 L 332.3 -106.0 L 331.1 -126.6 L 329.9 -132.2 L 330.3 -135.8 L 326.7 -147.9 L 326.3 -153.2 L 324.3 -156.4 L 324.3 -158.8 L 321.8 -161.2 L 319.0 -161.2 L 315.4 -159.6 L 302.5 -157.6 L 290.8 -153.6 L 268.2 -141.9 L 265.4 -141.9 L 254.5 -137.4 L 237.2 -127.0 L 234.0 -123.3 L 232.0 -122.9 L 221.5 -111.6 L 214.2 -97.5 L 211.8 -94.7 L 211.4 -91.5 L 209.0 -86.3 L 207.0 -73.8 L 209.8 -57.2 L 215.0 -43.1 L 219.1 -38.7 L 227.9 -33.1 L 232.8 -28.2 L 241.6 -23.4 L 254.1 -18.9 L 268.6 -16.9 L 275.5 -17.7 L 288.8 -15.7 L 311.0 -4.0 L 318.2 2.4 L 324.7 10.5 L 333.5 30.2 L 334.3 36.3 L 336.4 40.3 L 339.6 54.4 L 339.6 68.5 L 337.2 82.2 L 334.3 90.3 L 321.4 108.0 L 311.0 118.5 L 271.9 137.8 L 247.7 147.5 L 238.0 147.9 L 236.0 147.1 L 233.2 148.3 L 223.9 148.3 L 221.9 147.1 L 217.5 146.7 L 215.8 149.5 L 204.2 148.3 L 199.7 146.7 L 182.0 145.5 L 176.3 143.9 L 168.3 143.1 L 160.2 140.7 L 154.6 140.7 L 136.4 137.4 L 107.8 137.4 L 86.5 135.4 L 82.4 134.2 L 69.9 134.2 L 60.7 132.6 L 53.8 132.6 L 50.6 131.4 L 41.7 131.8 L 27.6 130.2 L 1.4 130.2 L -0.2 129.4 L -9.5 129.0 L -33.3 129.4 L -46.6 128.2 L -53.0 128.6 L -59.0 127.4 L -63.5 133.4 L -63.5 144.3 L -69.9 166.5 L -70.3 169.7 L -68.3 174.1 L -68.3 181.0 L -65.9 184.6 L -48.2 184.2 L -34.5 187.8 L -29.2 188.2 L -25.6 189.8 L -19.5 190.2 L -15.9 191.9 L 1.4 193.9 L 4.6 195.5 L 9.9 195.5 L 12.3 196.7 L 22.0 197.5 L 36.5 200.3 L 63.9 200.7 L 84.4 204.0 L 94.5 204.0 L 102.6 205.6 L 120.7 206.4 L 141.3 209.6 L 154.2 212.8 L 156.6 212.4 L 168.3 214.4 L 182.0 214.0 L 190.0 215.6 L 196.5 215.6 L 202.1 217.7 L 245.3 218.1 L 258.6 216.8 L 297.3 210.8 L 302.9 208.4 L 306.9 208.0 L 317.4 202.7 L 324.7 201.1 L 339.6 192.3 L 341.6 192.3 L 351.3 185.8 L 365.8 178.6 L 386.7 157.2 L 391.6 154.0 L 408.5 136.2 L 415.4 130.6 L 421.8 122.5 L 432.7 100.4 L 433.5 95.1 L 436.7 87.5 L 439.5 69.3 L 442.8 57.6 L 442.4 48.0 Z M 325.9 -147.1 L 326.7 -146.7 L 326.3 -143.5 L 325.5 -144.7 Z M 427.0 31.8 L 430.3 46.8 L 430.7 61.3 L 425.4 81.8 L 424.6 88.3 L 421.4 98.8 L 413.3 115.3 L 410.9 118.5 L 388.8 141.1 L 383.9 144.7 L 360.9 167.3 L 336.0 180.2 L 332.3 183.4 L 320.2 189.8 L 294.8 199.5 L 253.7 206.4 L 236.4 207.2 L 206.2 206.8 L 201.7 202.7 L 190.0 203.5 L 182.4 201.9 L 165.5 201.5 L 125.2 194.7 L 85.2 191.5 L 65.9 188.2 L 38.9 187.4 L 19.1 184.2 L 17.1 184.6 L 1.4 181.0 L -4.2 181.0 L -11.9 179.0 L -18.7 178.6 L -22.4 176.9 L -28.4 176.5 L -32.8 174.5 L -42.1 173.3 L -44.9 171.7 L -49.8 171.3 L -57.0 168.9 L -56.6 165.7 L -54.2 160.8 L -51.4 142.3 L -50.2 140.7 L -44.5 141.5 L -8.7 141.1 L 3.0 142.7 L 20.4 142.3 L 26.0 143.1 L 33.7 142.3 L 40.9 143.5 L 64.7 144.7 L 87.3 147.9 L 138.0 149.9 L 161.8 153.2 L 168.7 155.2 L 183.6 157.6 L 224.3 161.6 L 228.7 161.2 L 232.8 159.6 L 243.7 159.6 L 247.3 158.4 L 254.1 158.0 L 273.1 149.5 L 288.4 141.5 L 304.9 135.0 L 312.2 131.4 L 321.8 124.5 L 334.3 110.8 L 335.1 108.4 L 341.2 101.6 L 348.4 85.0 L 348.4 78.6 L 350.9 64.9 L 350.9 50.8 L 348.4 46.4 L 342.0 19.8 L 338.0 11.7 L 329.1 -3.2 L 323.9 -8.1 L 310.6 -16.9 L 293.2 -25.8 L 286.0 -28.2 L 273.5 -29.4 L 269.9 -27.8 L 257.8 -29.0 L 254.9 -30.6 L 259.0 -31.0 L 258.2 -31.8 L 248.1 -31.8 L 234.8 -39.5 L 229.5 -43.5 L 224.7 -49.2 L 220.3 -60.5 L 218.3 -70.1 L 219.1 -79.8 L 222.7 -89.9 L 231.6 -105.6 L 240.4 -114.5 L 249.7 -121.3 L 259.0 -126.6 L 276.3 -133.0 L 292.4 -142.7 L 307.3 -148.3 L 316.6 -150.3 L 318.2 -148.7 L 320.6 -137.0 L 320.2 -129.8 L 321.4 -112.5 L 317.8 -110.0 L 305.7 -106.0 L 298.5 -101.6 L 289.2 -91.9 L 281.1 -81.4 L 281.1 -76.2 L 282.3 -73.4 L 282.7 -67.7 L 284.8 -62.9 L 295.6 -52.8 L 303.7 -49.2 L 305.7 -47.2 L 312.6 -45.9 L 319.4 -42.3 L 335.1 -37.9 L 343.2 -34.3 L 346.8 -33.9 L 352.1 -31.0 L 356.9 -30.2 L 370.6 -24.2 L 373.0 -21.4 L 376.7 -19.8 L 385.9 -12.9 L 397.2 -2.4 L 410.5 8.1 L 419.8 18.1 L 424.2 25.0 Z M -293.6 -218.5 L -297.3 -218.5 L -298.5 -217.3 L -302.9 -208.8 L -308.9 -202.7 L -315.8 -198.7 L -327.9 -193.9 L -338.0 -192.3 L -343.6 -193.9 L -371.4 -195.1 L -374.2 -196.3 L -390.4 -196.3 L -391.2 -195.5 L -403.3 -193.9 L -405.7 -192.3 L -414.1 -190.2 L -427.0 -184.2 L -432.3 -183.0 L -437.1 -179.8 L -443.6 -173.7 L -449.2 -170.1 L -461.3 -157.6 L -469.8 -147.1 L -477.0 -136.2 L -485.1 -120.5 L -487.1 -114.5 L -493.1 -104.0 L -497.6 -85.0 L -500.0 -69.3 L -499.6 -53.6 L -498.4 -50.4 L -497.6 -39.1 L -495.2 -23.0 L -493.1 -16.1 L -493.6 -14.5 L -491.5 -11.7 L -487.9 -1.2 L -481.1 13.3 L -473.8 24.6 L -458.1 41.5 L -448.8 49.6 L -442.0 53.6 L -432.7 57.6 L -431.1 57.2 L -402.5 67.3 L -390.0 74.2 L -373.4 81.4 L -350.9 84.6 L -328.7 85.4 L -320.6 88.7 L -315.4 93.9 L -313.0 98.3 L -306.1 105.6 L -295.2 104.0 L -293.2 101.6 L -293.6 99.2 L -292.0 97.5 L -293.2 89.1 L -291.6 80.6 L -290.0 50.8 L -288.4 42.7 L -288.8 39.5 L -288.0 38.7 L -289.6 14.9 L -291.2 13.3 L -293.6 13.3 L -295.2 12.1 L -298.5 12.5 L -304.5 15.7 L -304.1 21.4 L -306.9 24.2 L -314.2 27.8 L -321.0 29.0 L -330.3 25.8 L -335.6 25.8 L -352.5 20.2 L -369.0 12.5 L -373.4 11.7 L -378.3 9.3 L -394.8 -3.6 L -402.5 -11.3 L -404.5 -14.5 L -409.7 -26.6 L -416.2 -54.8 L -416.6 -67.3 L -415.0 -78.6 L -415.0 -87.5 L -406.9 -112.9 L -398.8 -119.3 L -378.7 -130.2 L -369.4 -133.8 L -361.3 -135.0 L -317.4 -137.0 L -309.4 -135.4 L -302.1 -132.6 L -299.3 -129.4 L -299.7 -127.4 L -296.0 -122.1 L -294.0 -122.1 L -292.8 -123.7 L -288.0 -126.2 L -285.6 -132.6 L -285.2 -200.7 L -287.6 -215.2 L -290.0 -217.7 L -291.2 -217.3 Z M -297.7 -200.7 L -296.5 -199.5 L -296.5 -179.0 L -297.7 -169.3 L -297.3 -142.7 L -308.5 -147.5 L -316.6 -149.1 L -335.6 -148.3 L -343.2 -147.1 L -349.3 -147.1 L -350.5 -147.9 L -362.6 -147.1 L -377.1 -144.3 L -401.7 -131.8 L -408.1 -132.6 L -411.3 -131.0 L -419.8 -113.3 L -420.6 -108.8 L -425.0 -97.5 L -427.9 -85.0 L -427.4 -78.2 L -428.3 -77.0 L -429.5 -62.9 L -427.9 -48.8 L -421.4 -21.4 L -414.6 -6.4 L -399.6 8.5 L -387.5 17.3 L -381.9 20.2 L -376.7 21.4 L -360.9 28.6 L -338.4 36.3 L -332.3 35.9 L -328.3 37.9 L -318.6 40.3 L -311.8 40.3 L -304.5 37.5 L -301.3 34.3 L -300.1 33.9 L -299.3 34.7 L -302.5 73.4 L -303.7 79.4 L -303.3 82.2 L -303.7 85.4 L -305.3 85.9 L -310.6 79.4 L -320.2 74.2 L -328.7 73.4 L -342.4 73.8 L -369.4 69.7 L -373.0 67.7 L -375.5 67.7 L -381.1 63.7 L -394.0 57.6 L -402.5 54.8 L -405.3 54.8 L -411.3 51.6 L -417.8 50.4 L -429.1 46.4 L -443.6 38.3 L -459.3 23.0 L -464.9 16.1 L -471.0 6.9 L -478.2 -8.5 L -481.9 -18.1 L -484.7 -31.4 L -484.7 -35.5 L -487.5 -48.8 L -487.5 -54.4 L -489.1 -60.1 L -489.1 -74.6 L -485.5 -96.3 L -478.6 -100.4 L -474.6 -110.0 L -474.2 -113.3 L -464.9 -130.6 L -460.5 -137.4 L -448.0 -152.4 L -430.3 -168.9 L -423.0 -172.9 L -401.7 -181.8 L -388.4 -185.4 L -348.4 -185.8 L -334.3 -185.4 L -332.3 -183.8 L -327.9 -183.4 L -323.1 -184.2 L -313.8 -187.8 L -304.9 -192.7 Z
" />
</svg>
