<svg xmlns="http://www.w3.org/2000/svg" viewBox="-500 -500 1000 1000" width="100%" height="100%">
  <path fill="currentColor" fill-rule="evenodd" d="
M 82.9 -11.8 L 79.8 -8.7 L 75.0 0.8 L 76.1 11.8 L 79.3 17.6 L 88.2 25.0 L 96.6 25.5 L 98.7 24.0 L 101.4 24.0 L 106.1 20.3 L 109.3 22.4 L 111.9 30.3 L 111.9 36.6 L 114.5 43.4 L 115.6 56.6 L 119.3 65.0 L 121.9 75.6 L 128.8 90.8 L 141.9 113.5 L 147.2 119.3 L 157.2 135.1 L 173.0 153.5 L 182.5 160.3 L 195.6 166.7 L 204.1 169.3 L 209.3 168.8 L 214.1 166.7 L 225.1 155.6 L 228.3 148.8 L 229.3 138.8 L 227.8 134.5 L 220.4 127.7 L 212.5 127.7 L 204.1 125.6 L 203.0 127.7 L 196.7 130.9 L 189.3 143.0 L 186.2 140.9 L 176.7 130.3 L 172.5 123.0 L 168.8 120.9 L 166.1 115.6 L 162.5 112.4 L 142.4 79.8 L 141.9 76.1 L 136.1 63.5 L 134.5 44.5 L 131.4 36.1 L 129.8 22.9 L 117.7 1.3 L 104.0 -11.3 L 98.2 -14.0 L 89.3 -14.0 Z M -187.7 -88.2 L -190.4 -88.2 L -191.9 -85.0 L -189.8 -85.0 Z M -262.5 -265.1 L -258.8 -260.4 L -257.8 -260.9 Z M -57.7 -498.9 L -59.2 -497.4 L -65.6 -497.9 L -72.4 -495.8 L -85.0 -494.2 L -93.5 -491.0 L -95.6 -491.6 L -169.8 -466.3 L -203.5 -461.0 L -210.4 -458.4 L -224.6 -456.3 L -237.8 -451.0 L -243.5 -450.0 L -290.9 -423.6 L -302.0 -411.5 L -311.5 -405.7 L -338.3 -380.5 L -349.9 -366.2 L -352.0 -361.5 L -366.2 -345.7 L -400.5 -289.4 L -415.2 -258.3 L -430.0 -231.4 L -457.3 -166.1 L -462.6 -156.7 L -472.6 -127.2 L -478.4 -115.1 L -488.9 -72.4 L -493.2 -41.3 L -494.7 -36.6 L -494.2 -16.6 L -495.8 -10.8 L -496.8 8.2 L -495.8 42.4 L -493.2 65.6 L -487.9 91.9 L -487.9 97.7 L -483.7 111.9 L -480.5 132.4 L -477.4 138.8 L -471.6 157.7 L -471.6 160.9 L -457.3 187.7 L -440.5 226.2 L -428.9 242.0 L -415.7 263.6 L -401.0 282.0 L -391.0 297.3 L -383.1 305.2 L -375.7 315.7 L -368.4 323.1 L -357.8 337.3 L -342.0 354.1 L -339.4 358.3 L -298.3 394.7 L -298.3 400.5 L -295.2 403.6 L -289.9 405.7 L -285.2 405.7 L -279.9 410.5 L -270.9 414.2 L -262.0 421.5 L -246.2 430.5 L -224.1 441.0 L -205.6 447.9 L -194.6 454.7 L -179.3 461.6 L -169.3 464.2 L -154.0 471.0 L -143.0 472.1 L -139.8 474.2 L -133.0 474.7 L -128.8 477.9 L -102.4 482.6 L -81.9 491.0 L -65.0 490.0 L -59.8 492.1 L -30.8 496.8 L -11.3 496.8 L 10.3 499.5 L 31.9 497.4 L 54.5 497.9 L 78.7 495.3 L 82.9 493.2 L 91.4 492.1 L 96.6 489.5 L 104.0 488.4 L 111.9 485.3 L 123.0 483.7 L 127.7 481.6 L 132.4 481.6 L 137.7 479.5 L 170.9 476.3 L 173.0 474.7 L 185.1 471.6 L 195.1 466.3 L 198.8 466.3 L 205.6 463.1 L 215.6 461.6 L 263.0 444.7 L 300.4 426.8 L 313.1 417.3 L 328.3 409.4 L 333.6 403.6 L 357.8 389.9 L 369.9 384.7 L 389.9 363.6 L 403.6 343.6 L 430.5 290.9 L 439.4 266.7 L 444.7 257.2 L 462.1 216.7 L 465.8 205.1 L 476.3 181.4 L 478.4 171.9 L 482.1 163.5 L 486.8 138.8 L 490.0 129.3 L 492.6 108.7 L 492.6 98.7 L 494.2 92.4 L 493.2 69.8 L 496.3 46.6 L 496.3 38.7 L 494.7 36.6 L 494.2 -1.3 L 496.3 -35.0 L 493.7 -42.4 L 491.6 -61.3 L 487.4 -73.5 L 481.6 -104.5 L 481.6 -110.3 L 479.5 -114.5 L 477.4 -131.4 L 475.8 -133.5 L 474.2 -147.7 L 471.0 -155.1 L 470.0 -164.6 L 460.5 -189.3 L 456.8 -203.0 L 444.7 -231.4 L 444.7 -234.1 L 441.5 -238.8 L 436.3 -255.7 L 421.0 -286.2 L 418.9 -293.0 L 412.6 -301.5 L 402.6 -318.9 L 395.7 -325.2 L 391.0 -333.1 L 373.1 -352.6 L 370.5 -357.3 L 341.0 -386.8 L 338.3 -391.5 L 331.5 -396.8 L 298.8 -428.9 L 276.2 -445.8 L 251.4 -457.9 L 248.8 -457.9 L 244.6 -460.5 L 241.4 -460.0 L 227.2 -466.3 L 212.0 -470.0 L 202.5 -473.7 L 181.9 -478.4 L 176.7 -478.4 L 172.5 -480.5 L 163.5 -481.0 L 160.9 -482.6 L 142.4 -486.3 L 134.5 -486.3 L 109.3 -491.0 L 86.6 -492.6 L 82.9 -494.2 L 72.4 -494.7 L 63.5 -496.8 L 26.1 -498.9 L -9.2 -498.4 L -17.6 -500.0 L -34.5 -499.5 L -36.6 -498.4 Z M 188.3 351.0 L 187.2 379.4 L 176.1 426.3 L 169.8 442.1 L 164.6 446.8 L 161.9 452.6 L 158.2 456.3 L 154.0 455.2 L 148.2 455.8 L 131.4 462.6 L 125.1 462.6 L 117.2 467.4 L 110.8 466.8 L 107.2 469.5 L 82.4 477.4 L 67.1 480.5 L 29.2 481.6 L 12.4 483.7 L 9.2 482.6 L -3.4 482.6 L -9.7 481.0 L -34.0 481.0 L -43.4 479.5 L -47.1 477.4 L -50.3 477.9 L -54.5 472.6 L -62.4 473.1 L -66.6 470.5 L -74.5 470.5 L -77.7 474.7 L -80.8 474.7 L -97.7 467.4 L -117.7 463.7 L -120.9 461.6 L -133.5 457.9 L -150.9 455.2 L -162.5 449.4 L -165.1 449.4 L -173.0 445.8 L -177.2 445.8 L -199.3 433.6 L -226.2 423.1 L -243.5 414.2 L -246.7 411.0 L -245.7 409.4 L -237.8 409.4 L -214.6 415.2 L -181.9 416.8 L -175.1 414.2 L -159.8 413.1 L -139.3 408.4 L -120.3 407.3 L -112.4 404.7 L -99.8 403.1 L -85.6 398.4 L -76.1 397.3 L -54.5 387.8 L -23.4 369.9 L -0.3 346.8 L 6.6 337.3 L 8.2 331.5 L 37.7 344.7 L 67.1 354.1 L 74.0 354.1 L 91.9 357.3 L 102.9 356.8 L 115.1 358.3 L 125.1 355.7 L 141.9 355.2 L 156.1 352.0 L 164.0 352.6 L 170.9 349.9 L 177.2 349.9 L 184.6 346.8 L 186.7 347.3 Z M 16.6 315.7 L 18.2 314.6 L 23.4 315.7 L 29.8 313.1 L 32.9 313.1 L 37.7 310.4 L 47.7 309.4 L 48.7 308.3 L 71.4 308.8 L 78.2 310.4 L 90.3 316.2 L 96.1 317.3 L 111.9 324.1 L 119.8 329.4 L 130.3 339.9 L 113.5 342.5 L 91.9 342.0 L 76.1 339.9 L 72.4 337.8 L 66.6 337.3 L 48.7 330.4 L 41.3 328.9 L 36.6 325.7 L 17.6 318.3 Z M 361.5 318.3 L 371.5 335.7 L 377.8 351.5 L 366.8 364.7 L 357.8 372.6 L 336.2 386.3 L 327.3 390.5 L 317.8 393.1 L 309.4 398.4 L 292.5 405.2 L 285.7 411.5 L 283.0 415.7 L 258.3 428.4 L 216.7 444.2 L 206.7 445.8 L 200.9 448.4 L 194.6 449.4 L 185.6 453.7 L 183.5 453.1 L 190.9 438.4 L 195.6 424.7 L 197.2 411.5 L 201.4 400.5 L 203.0 388.9 L 204.6 385.2 L 206.2 373.6 L 204.6 339.9 L 228.8 331.0 L 242.0 323.6 L 258.3 309.4 L 269.9 303.6 L 278.3 294.6 L 284.6 285.7 L 291.5 272.0 L 292.5 266.2 L 325.2 282.0 L 338.9 294.1 Z M 107.7 176.1 L 123.0 168.8 L 127.2 169.8 L 127.7 175.6 L 135.6 199.3 L 148.2 224.6 L 150.3 236.2 L 156.7 248.3 L 159.3 256.2 L 177.2 288.3 L 190.4 305.7 L 192.5 311.0 L 201.9 321.5 L 200.4 324.1 L 194.0 326.8 L 188.8 326.8 L 179.3 331.5 L 175.1 331.0 L 159.8 292.0 L 129.3 235.7 L 122.4 226.7 L 121.4 223.5 L 115.6 217.2 L 113.0 212.0 L 91.4 190.9 L 93.5 186.7 L 99.3 183.5 Z M 57.7 144.5 L 60.3 145.1 L 64.0 143.5 L 65.6 144.5 L 84.5 171.4 L 85.0 173.5 L 83.5 175.1 L 81.4 175.1 L 67.7 159.3 L 66.1 155.6 L 57.1 146.1 Z M 79.8 136.7 L 84.0 137.7 L 89.3 148.2 L 99.8 161.9 L 99.8 163.5 L 95.6 167.2 L 93.5 166.1 L 81.9 144.5 L 77.7 138.8 Z M 94.0 127.2 L 96.1 126.6 L 97.7 128.2 L 100.8 135.1 L 105.1 138.8 L 110.3 146.1 L 111.4 151.9 L 113.0 153.5 L 111.9 156.7 L 109.8 155.6 L 106.1 150.3 L 99.3 136.1 L 91.9 130.9 Z M 89.3 112.4 L 89.3 114.0 L 85.0 118.7 L 77.1 125.1 L 67.1 130.3 L 48.7 134.0 L 41.3 139.8 L 35.5 134.5 L 36.1 132.4 L 39.8 128.8 L 49.2 126.1 L 50.8 126.6 L 77.7 114.0 L 81.9 110.3 L 86.6 109.8 Z M 477.4 52.9 L 478.9 54.0 L 478.4 88.2 L 476.3 114.0 L 474.2 126.6 L 470.0 138.8 L 468.4 153.5 L 464.7 162.5 L 464.7 165.6 L 451.6 198.3 L 442.1 217.7 L 436.8 234.6 L 425.2 257.2 L 425.8 258.3 L 414.7 284.1 L 391.5 330.4 L 388.4 331.5 L 381.0 316.2 L 372.6 304.6 L 341.5 273.0 L 327.8 264.1 L 301.5 250.9 L 296.2 249.9 L 296.7 229.9 L 293.6 222.5 L 291.5 201.9 L 284.6 180.9 L 283.6 168.8 L 280.9 163.0 L 278.8 151.4 L 276.7 145.1 L 269.9 132.4 L 266.2 120.3 L 270.4 119.3 L 272.5 120.9 L 301.5 120.9 L 306.2 119.3 L 325.2 117.7 L 354.7 106.6 L 364.1 105.1 L 386.3 97.2 L 391.0 96.6 L 427.3 79.8 L 438.4 76.6 L 452.6 67.7 L 470.0 59.2 Z M 6.6 49.8 L 10.8 54.5 L 11.8 58.2 L 15.0 60.8 L 34.5 100.3 L 42.9 112.4 L 42.9 115.6 L 36.6 118.2 L 28.7 109.8 L 0.3 59.8 L 0.8 57.1 L 3.9 57.1 L 5.5 55.0 L 5.5 50.8 Z M 19.2 42.9 L 24.0 46.6 L 49.2 90.3 L 57.1 107.2 L 54.5 110.8 L 51.3 111.4 L 46.6 106.6 L 37.1 89.3 L 26.6 65.0 L 17.6 48.2 L 17.6 44.5 Z M 30.3 39.2 L 37.1 41.3 L 44.5 56.1 L 56.6 71.4 L 57.7 74.5 L 66.1 86.1 L 69.8 94.5 L 73.5 98.2 L 73.5 100.8 L 67.1 105.6 L 65.6 105.6 L 62.4 101.9 L 32.9 44.0 L 29.8 40.8 Z M 19.2 22.9 L 20.3 22.4 L 23.4 26.1 L 21.9 27.1 Z M -14.5 17.6 L -12.4 18.7 L 0.3 37.1 L -0.8 39.8 L -2.4 39.8 L -5.5 36.1 L -15.0 19.2 Z M -35.5 10.8 L -22.9 27.6 L -17.1 38.7 L -13.4 40.8 L -14.5 43.4 L -18.7 45.6 L -21.9 44.0 L -27.1 30.8 L -32.9 20.3 L -36.1 12.4 Z M -481.6 -6.6 L -478.9 -8.2 L -427.3 22.4 L -407.3 31.9 L -359.4 50.8 L -356.2 50.8 L -351.5 54.0 L -348.3 54.0 L -343.6 56.6 L -340.4 56.6 L -326.8 61.3 L -319.9 65.0 L -307.3 67.7 L -297.8 71.9 L -293.6 71.9 L -289.4 74.5 L -281.5 75.0 L -258.3 81.4 L -253.6 81.4 L -248.3 84.0 L -237.8 85.0 L -234.1 87.2 L -229.9 87.2 L -226.7 89.3 L -209.3 91.9 L -203.5 94.5 L -195.6 94.5 L -187.7 96.6 L -176.1 96.1 L -171.9 97.7 L -165.1 97.2 L -162.5 98.2 L -160.3 100.3 L -166.1 109.3 L -168.2 114.5 L -168.2 118.2 L -163.0 124.0 L -159.3 125.6 L -155.1 125.6 L -149.3 122.4 L -147.2 119.3 L -145.1 118.7 L -138.2 111.9 L -125.6 106.1 L -115.6 105.6 L -110.3 107.2 L -104.0 111.4 L -90.8 124.5 L -79.8 141.4 L -68.7 174.6 L -66.1 188.3 L -63.5 193.5 L -60.8 207.7 L -58.2 214.6 L -55.6 235.7 L -54.0 237.8 L -54.0 255.7 L -67.1 270.4 L -72.4 272.5 L -74.0 274.6 L -72.9 281.5 L -64.0 291.5 L -59.2 293.6 L -48.2 302.0 L -28.2 312.0 L -24.5 315.7 L -9.7 323.1 L -10.3 326.2 L -14.0 333.1 L -35.5 355.2 L -50.8 364.7 L -57.7 367.3 L -60.3 370.5 L -82.9 381.0 L -91.4 382.0 L -105.6 386.3 L -119.3 387.8 L -129.3 390.5 L -146.7 391.5 L -148.8 393.1 L -164.0 396.3 L -175.6 396.8 L -178.3 398.4 L -188.3 399.4 L -218.3 398.4 L -242.5 393.1 L -256.2 392.6 L -259.3 390.5 L -266.7 388.9 L -279.9 389.9 L -288.3 386.8 L -328.3 349.9 L -355.7 318.9 L -360.5 311.5 L -372.6 297.8 L -373.6 294.6 L -383.6 284.6 L -386.3 278.8 L -399.4 263.0 L -403.6 255.1 L -416.8 237.2 L -433.1 208.8 L -441.5 186.7 L -455.2 160.9 L -458.9 156.1 L -458.9 151.9 L -462.1 144.5 L -464.2 131.4 L -468.4 123.5 L -470.5 108.2 L -473.1 98.7 L -473.1 92.9 L -476.3 84.5 L -478.4 66.1 L -481.6 52.4 L -481.6 22.4 L -483.1 11.3 Z M -14.0 -28.2 L -9.7 -24.5 L 1.3 -8.7 L 8.2 -1.3 L 6.6 0.3 L 3.4 -1.3 L -14.0 -25.0 Z M -62.9 -29.8 L -58.2 -25.5 L -50.3 -12.4 L -46.6 -8.7 L -39.8 3.9 L -40.3 5.0 L -60.3 -21.9 L -62.9 -26.6 Z M -43.4 -47.7 L -32.9 -39.2 L -17.6 -14.5 L 3.4 14.0 L 14.0 30.8 L 12.9 32.4 L 9.2 34.0 L 5.5 30.3 L -3.9 13.4 L -15.0 0.3 L -21.9 -11.8 L -27.1 -18.2 L -35.0 -32.9 L -42.9 -43.4 Z M -55.0 -82.9 L -40.3 -65.6 L -41.9 -63.5 L -47.1 -68.2 L -55.0 -80.3 Z M -154.0 -106.1 L -146.1 -110.3 L -144.0 -109.8 L -139.3 -111.4 L -133.0 -103.5 L -126.1 -98.2 L -116.1 -80.8 L -111.9 -76.1 L -84.0 -31.3 L -76.6 -21.9 L -74.0 -14.5 L -56.1 10.8 L -39.2 41.9 L -38.7 44.5 L -40.8 45.0 L -45.0 41.3 L -56.6 39.8 L -65.6 44.5 L -69.8 50.8 L -70.3 60.3 L -67.1 74.5 L -61.3 87.2 L -58.2 90.3 L -49.2 106.1 L -38.7 118.2 L -31.9 129.3 L -26.6 135.1 L -20.8 146.7 L -16.6 150.3 L -5.5 167.2 L -1.8 174.6 L -0.8 181.9 L 0.8 184.0 L 1.3 189.3 L 3.9 195.6 L 6.1 219.3 L 5.5 224.6 L 3.4 225.1 L -2.4 223.0 L -11.3 224.1 L -19.7 229.3 L -22.4 232.0 L -23.4 237.8 L -23.4 245.1 L -18.2 252.5 L -7.1 256.7 L -3.4 255.7 L 1.3 256.2 L 10.3 253.6 L 17.1 245.7 L 22.9 234.1 L 22.4 227.2 L 24.5 219.9 L 24.5 204.6 L 21.9 195.1 L 21.9 188.8 L 10.8 159.8 L -5.5 138.2 L -14.5 123.0 L -37.7 95.1 L -47.1 78.2 L -47.7 73.5 L -42.9 70.8 L -38.2 71.4 L -34.0 67.1 L -33.4 60.8 L -31.9 59.8 L -29.8 61.3 L -28.2 65.0 L -24.0 68.2 L -18.2 68.2 L -14.5 66.6 L -10.3 61.3 L -7.6 62.9 L 7.6 88.7 L 14.0 102.4 L 27.6 120.3 L 26.6 121.9 L 27.6 127.7 L 24.0 128.8 L 21.9 131.9 L 21.9 136.7 L 23.4 139.8 L 27.6 142.4 L 37.1 151.9 L 41.3 151.9 L 44.5 149.3 L 46.1 149.8 L 45.0 155.6 L 56.6 165.6 L 66.6 178.3 L 73.5 184.6 L 72.9 188.8 L 78.7 194.0 L 79.3 197.7 L 89.3 205.1 L 102.9 220.4 L 104.5 224.1 L 113.0 234.6 L 125.1 255.7 L 146.7 298.3 L 158.2 326.8 L 159.3 333.1 L 158.2 335.2 L 154.0 332.5 L 148.8 332.0 L 144.0 324.6 L 139.3 321.0 L 137.2 321.0 L 129.8 313.1 L 120.9 307.3 L 109.3 303.6 L 107.7 300.4 L 100.8 300.9 L 97.2 298.8 L 93.5 299.4 L 91.9 297.8 L 84.0 295.7 L 79.8 292.0 L 44.0 293.6 L 30.3 296.7 L 25.5 299.4 L 9.2 300.9 L -4.5 307.3 L -38.2 289.9 L -45.0 284.1 L -45.0 282.0 L -46.6 282.5 L -48.2 280.9 L -48.2 278.3 L -45.0 275.7 L -41.3 267.2 L -37.1 261.5 L -36.6 237.8 L -42.9 202.5 L -44.5 200.4 L -48.7 180.4 L -56.1 159.8 L -57.7 149.8 L -60.3 145.1 L -61.9 138.2 L -71.9 119.8 L -93.5 97.2 L -107.2 90.3 L -110.3 90.3 L -113.5 88.2 L -118.7 87.2 L -119.8 85.6 L -122.4 87.2 L -127.7 86.6 L -133.0 90.3 L -135.6 90.3 L -136.7 88.2 L -135.1 70.8 L -136.1 51.9 L -141.4 31.9 L -149.8 12.4 L -150.3 7.1 L -155.6 -6.1 L -155.6 -9.2 L -165.6 -32.9 L -168.8 -45.6 L -168.2 -50.8 L -170.9 -57.7 L -170.9 -74.0 L -168.2 -85.0 L -161.9 -98.2 Z M -104.0 -135.6 L -100.3 -133.0 L -99.3 -129.8 L -95.1 -126.1 L -92.4 -120.9 L -88.7 -117.2 L -75.0 -95.1 L -70.3 -89.8 L -68.7 -86.6 L -69.8 -85.6 L -77.7 -91.9 L -104.5 -134.0 Z M -79.3 -141.9 L -71.4 -144.5 L -62.9 -145.1 L -55.6 -147.7 L -23.4 -150.3 L 16.1 -149.3 L 19.7 -146.7 L 26.6 -147.2 L 37.1 -141.9 L 49.8 -134.0 L 56.6 -126.1 L 59.8 -124.5 L 78.7 -96.6 L 90.8 -73.5 L 92.9 -61.9 L 96.1 -54.5 L 94.5 -46.1 L 95.1 -42.4 L 109.3 -28.7 L 112.4 -28.2 L 118.7 -24.5 L 126.1 -24.0 L 133.0 -25.0 L 134.0 -24.0 L 131.9 -10.8 L 130.3 -7.6 L 131.4 -3.9 L 131.4 9.2 L 141.9 44.0 L 154.0 65.6 L 178.3 88.7 L 189.8 97.2 L 235.1 120.3 L 241.4 121.4 L 248.8 120.3 L 254.6 135.6 L 262.0 150.9 L 264.6 165.1 L 267.8 173.5 L 268.3 180.4 L 272.5 191.4 L 275.1 205.6 L 277.8 213.0 L 278.3 226.2 L 279.9 232.5 L 279.4 255.7 L 277.8 257.2 L 276.7 264.1 L 268.8 280.9 L 260.9 289.9 L 243.5 298.8 L 228.3 312.5 L 221.4 315.2 L 217.2 314.6 L 205.1 302.5 L 201.9 295.7 L 198.3 292.0 L 175.1 255.1 L 171.4 245.1 L 165.1 233.5 L 159.8 216.2 L 150.9 199.3 L 146.7 188.3 L 146.7 184.0 L 142.4 171.4 L 138.2 161.9 L 130.3 152.4 L 125.6 151.4 L 123.5 149.3 L 120.9 140.9 L 110.8 123.0 L 111.4 114.5 L 102.4 106.6 L 101.9 98.7 L 96.6 95.6 L 85.6 97.2 L 79.8 90.8 L 68.7 72.4 L 54.5 52.9 L 47.1 38.7 L 47.1 36.1 L 50.3 35.0 L 54.0 29.2 L 54.5 25.5 L 50.3 18.7 L 41.9 8.2 L 34.5 3.9 L 25.5 -4.5 L 8.2 -25.0 L -28.2 -73.5 L -31.3 -79.8 L -42.9 -91.4 L -53.4 -106.6 L -62.4 -115.6 L -68.2 -124.5 L -72.9 -129.3 L -79.8 -139.8 Z M -161.9 -233.5 L -158.2 -230.9 L -131.9 -189.8 L -120.9 -175.1 L -106.1 -150.9 L -107.7 -142.4 L -133.5 -181.9 L -137.7 -186.2 L -148.2 -201.9 L -154.0 -213.0 L -164.0 -227.2 Z M -204.1 -240.4 L -197.7 -234.6 L -187.2 -215.6 L -180.4 -207.7 L -163.5 -180.9 L -146.1 -149.3 L -142.4 -146.1 L -140.3 -141.9 L -140.9 -140.9 L -150.9 -151.9 L -150.9 -153.5 L -163.5 -169.3 L -168.2 -178.3 L -177.2 -190.4 L -191.9 -218.8 L -204.6 -238.3 Z M -142.4 -243.5 L -146.7 -239.9 L -149.3 -240.9 L -147.7 -244.1 L -144.0 -244.6 Z M -208.3 -245.7 L -204.6 -242.0 L -204.6 -239.9 L -207.2 -241.4 Z M -193.0 -249.3 L -189.8 -250.9 L -184.6 -245.7 L -185.1 -240.9 L -176.7 -229.9 L -173.0 -222.5 L -167.2 -216.2 L -151.9 -191.4 L -123.5 -150.3 L -105.6 -118.2 L -89.3 -92.9 L -85.6 -89.3 L -60.3 -51.9 L -50.3 -39.8 L -40.8 -21.9 L -38.2 -19.7 L -24.0 2.9 L -24.5 5.5 L -27.6 5.5 L -33.4 -1.8 L -74.5 -64.0 L -79.3 -67.7 L -84.0 -77.7 L -98.2 -99.8 L -109.8 -113.0 L -114.5 -123.5 L -117.7 -126.6 L -124.5 -138.8 L -127.7 -141.9 L -130.3 -141.9 L -133.0 -144.5 L -138.8 -156.7 L -150.9 -176.7 L -164.6 -205.1 L -171.9 -217.2 L -175.6 -220.4 L -179.8 -230.4 L -191.4 -242.5 L -193.5 -246.7 Z M -234.6 -255.1 L -230.4 -248.3 L -234.6 -245.7 L -239.3 -240.4 L -243.5 -240.4 L -244.6 -242.5 L -241.4 -244.1 L -237.2 -249.9 L -239.3 -255.1 Z M -191.4 -280.9 L -190.4 -279.9 L -190.4 -274.1 L -188.8 -271.5 L -188.8 -266.2 L -196.7 -258.3 L -203.0 -257.8 L -206.7 -258.8 L -209.8 -266.7 L -213.0 -269.4 L -211.4 -272.5 L -212.5 -276.7 L -211.4 -277.8 L -202.5 -277.8 Z M 404.2 -282.5 L 410.5 -275.7 L 422.1 -250.9 L 426.8 -237.8 L 426.3 -235.7 L 427.9 -234.6 L 431.5 -226.2 L 431.5 -222.5 L 438.4 -208.3 L 445.2 -189.8 L 445.2 -186.7 L 451.6 -172.5 L 454.2 -158.2 L 460.5 -137.7 L 464.2 -111.4 L 477.9 -50.3 L 480.0 -30.3 L 480.0 -10.8 L 478.4 5.5 L 479.5 31.3 L 478.4 32.4 L 473.7 30.8 L 469.5 31.9 L 463.1 40.3 L 455.2 46.6 L 440.5 53.4 L 428.9 60.8 L 425.2 61.3 L 399.9 74.0 L 368.9 86.1 L 364.7 86.1 L 356.8 89.8 L 346.2 91.4 L 321.5 100.3 L 308.3 101.4 L 298.8 104.0 L 292.0 103.5 L 286.7 104.5 L 276.2 102.4 L 264.6 101.9 L 259.9 98.7 L 255.7 97.7 L 250.9 99.3 L 249.9 96.6 L 242.5 95.6 L 243.0 96.6 L 249.3 97.7 L 244.1 99.8 L 242.0 97.7 L 230.4 97.2 L 218.8 93.5 L 215.1 90.3 L 217.2 88.2 L 216.7 86.6 L 220.4 79.8 L 223.0 65.0 L 224.1 46.6 L 222.5 42.9 L 224.6 39.8 L 223.0 35.5 L 223.5 -23.4 L 221.4 -38.2 L 220.9 -56.6 L 218.3 -64.0 L 218.3 -76.6 L 215.6 -85.0 L 215.1 -91.9 L 223.5 -96.1 L 245.1 -98.2 L 253.0 -100.8 L 277.8 -114.0 L 286.2 -121.4 L 295.7 -124.5 L 312.0 -134.0 L 317.3 -139.3 L 324.1 -143.5 L 338.9 -157.7 L 340.4 -161.9 L 351.0 -171.9 L 355.7 -180.4 L 362.6 -187.2 L 371.5 -201.9 L 386.8 -232.0 L 392.6 -249.3 L 399.9 -265.7 L 402.1 -280.9 Z M -148.8 -287.3 L -144.5 -290.4 L -141.9 -289.4 L -143.0 -284.1 L -147.7 -284.6 Z M -212.0 -299.4 L -212.0 -296.7 L -216.2 -294.6 L -219.9 -294.1 L -222.5 -296.2 L -218.3 -301.5 L -214.6 -302.0 Z M -201.4 -314.1 L -196.2 -314.1 L -188.8 -306.7 L -188.8 -294.1 L -194.6 -288.8 L -197.2 -289.4 L -195.6 -293.6 L -195.6 -299.4 L -203.0 -311.0 L -203.0 -313.1 Z M -217.7 -319.9 L -216.7 -318.9 L -218.3 -317.3 L -223.0 -316.2 L -232.0 -309.9 L -236.7 -303.1 L -238.3 -296.2 L -237.8 -286.7 L -232.5 -272.0 L -234.1 -270.4 L -243.5 -270.4 L -246.2 -271.5 L -253.6 -284.1 L -253.6 -290.4 L -250.4 -293.0 L -247.2 -301.5 L -241.4 -308.8 L -235.7 -313.6 L -230.9 -316.2 L -223.5 -317.8 L -220.9 -319.9 Z M -165.1 -324.1 L -150.9 -322.0 L -148.8 -319.9 L -146.1 -320.4 L -137.2 -314.1 L -121.4 -310.4 L -71.4 -286.7 L -32.4 -265.7 L -18.7 -254.6 L -18.2 -250.4 L -12.4 -245.7 L -8.2 -237.2 L 6.1 -218.3 L 14.5 -204.1 L 38.2 -176.1 L 40.8 -175.1 L 56.6 -160.3 L 68.2 -147.7 L 82.9 -136.7 L 88.2 -134.5 L 98.7 -125.6 L 120.3 -114.0 L 157.2 -98.2 L 163.5 -98.2 L 186.7 -93.5 L 197.2 -93.5 L 198.8 -91.9 L 203.0 -52.9 L 205.6 -38.7 L 205.6 -25.5 L 207.7 -11.8 L 207.7 -1.3 L 206.2 4.5 L 207.7 19.2 L 205.6 32.9 L 207.2 46.1 L 206.7 65.0 L 205.6 71.4 L 199.8 79.8 L 199.8 82.4 L 193.0 78.7 L 190.9 75.6 L 184.0 71.4 L 166.1 54.0 L 153.0 27.6 L 147.7 7.1 L 147.2 -2.4 L 148.8 -14.5 L 151.9 -25.0 L 158.2 -37.7 L 158.2 -41.9 L 156.7 -45.6 L 149.3 -49.8 L 141.9 -49.2 L 127.2 -41.3 L 124.0 -41.3 L 118.2 -45.6 L 118.7 -58.2 L 115.6 -62.4 L 108.7 -64.5 L 105.6 -74.0 L 105.6 -78.2 L 92.4 -104.5 L 92.4 -106.6 L 81.4 -120.9 L 78.2 -127.7 L 64.5 -142.4 L 43.4 -157.2 L 28.2 -163.5 L 20.3 -164.6 L 14.0 -163.5 L -8.2 -165.1 L -30.8 -164.6 L -44.5 -161.9 L -54.5 -161.9 L -66.1 -158.2 L -74.5 -157.7 L -86.6 -151.9 L -89.3 -153.0 L -100.3 -167.2 L -110.3 -184.6 L -139.3 -226.2 L -138.2 -228.8 L -129.8 -232.5 L -123.5 -239.3 L -116.6 -242.0 L -113.5 -242.0 L -107.7 -246.2 L -106.1 -248.3 L -106.1 -251.4 L -104.0 -254.1 L -104.5 -262.5 L -109.3 -268.8 L -116.6 -272.5 L -123.5 -273.0 L -140.3 -264.6 L -143.5 -260.4 L -148.8 -259.3 L -156.7 -254.6 L -159.3 -254.6 L -162.5 -258.3 L -161.4 -259.9 L -152.4 -259.9 L -145.6 -266.2 L -143.0 -270.4 L -134.5 -270.4 L -131.4 -273.6 L -128.2 -279.9 L -126.1 -292.5 L -127.2 -297.8 L -131.4 -303.1 L -139.8 -305.7 L -143.0 -305.7 L -147.7 -303.6 L -154.6 -303.6 L -162.5 -296.7 L -163.0 -300.4 L -160.3 -306.7 L -160.3 -312.0 L -163.0 -318.9 L -165.6 -322.0 Z M -203.5 -329.4 L -200.4 -329.9 L -193.5 -326.8 L -192.5 -325.2 L -194.0 -324.1 Z M -235.7 -325.2 L -233.0 -328.3 L -223.5 -331.5 L -205.1 -331.5 L -203.0 -330.4 L -209.3 -327.3 L -213.5 -328.9 Z M -359.9 -332.5 L -353.1 -328.9 L -343.1 -328.9 L -335.7 -326.2 L -311.0 -324.6 L -296.7 -321.5 L -283.0 -320.4 L -267.2 -313.1 L -270.4 -306.7 L -270.9 -302.5 L -269.9 -289.9 L -270.9 -286.2 L -266.7 -279.4 L -266.7 -275.1 L -265.1 -274.1 L -262.5 -267.8 L -251.4 -258.8 L -245.1 -256.7 L -244.1 -254.6 L -252.0 -250.9 L -254.6 -248.3 L -260.4 -248.8 L -265.7 -247.8 L -269.9 -245.7 L -275.1 -240.4 L -275.1 -235.1 L -272.5 -224.6 L -264.6 -216.2 L -255.7 -216.2 L -246.2 -224.6 L -240.9 -224.6 L -232.0 -228.8 L -223.0 -237.8 L -220.9 -236.7 L -216.2 -229.9 L -223.5 -222.0 L -229.9 -220.9 L -239.3 -214.6 L -246.2 -215.1 L -250.9 -210.9 L -256.2 -203.0 L -256.2 -196.7 L -252.5 -186.7 L -246.2 -182.5 L -237.8 -182.5 L -223.0 -190.9 L -218.8 -190.9 L -211.4 -194.6 L -205.1 -201.9 L -206.2 -208.8 L -210.4 -213.0 L -210.4 -214.6 L -208.8 -216.2 L -207.7 -215.6 L -190.9 -184.0 L -182.5 -171.9 L -175.6 -158.8 L -167.7 -149.8 L -158.2 -135.6 L -151.4 -128.8 L -151.9 -126.6 L -165.1 -121.9 L -172.5 -114.0 L -178.3 -105.1 L -183.0 -95.6 L -183.0 -92.4 L -186.2 -88.2 L -186.2 -84.0 L -189.3 -77.7 L -188.3 -60.8 L -190.9 -51.9 L -189.3 -53.4 L -187.7 -52.4 L -186.7 -45.0 L -183.5 -38.7 L -179.3 -21.3 L -174.0 -10.8 L -168.8 7.1 L -164.0 17.6 L -164.0 21.9 L -158.8 34.0 L -157.7 42.4 L -155.6 47.7 L -155.6 58.7 L -153.5 62.4 L -154.0 79.8 L -155.6 81.9 L -164.0 81.9 L -165.6 80.8 L -194.0 78.2 L -197.7 76.6 L -210.9 75.0 L -214.6 72.9 L -219.3 72.9 L -227.8 70.8 L -229.9 69.2 L -237.8 68.7 L -258.3 63.5 L -265.1 63.5 L -278.3 59.2 L -293.0 56.6 L -323.6 46.1 L -328.3 43.4 L -357.3 35.5 L -372.0 29.2 L -373.6 29.8 L -379.4 26.6 L -382.0 26.6 L -423.1 8.2 L -444.2 -4.5 L -461.6 -12.9 L -470.0 -18.2 L -473.7 -22.4 L -477.9 -23.4 L -480.5 -25.5 L -477.9 -55.0 L -473.7 -69.8 L -472.1 -81.9 L -469.5 -88.2 L -467.9 -98.2 L -465.8 -101.9 L -465.2 -107.7 L -455.2 -133.5 L -455.2 -136.7 L -453.7 -138.2 L -438.9 -176.1 L -423.6 -208.3 L -417.3 -225.6 L -402.6 -254.1 L -398.4 -265.7 L -376.8 -305.7 L -365.7 -321.5 L -364.1 -326.8 Z M 90.8 -477.9 L 141.4 -471.0 L 143.5 -469.5 L 151.4 -468.9 L 193.5 -460.0 L 197.2 -457.9 L 216.2 -453.7 L 222.5 -450.5 L 245.7 -443.1 L 270.4 -430.5 L 282.5 -420.0 L 285.7 -418.9 L 303.6 -402.6 L 351.0 -355.2 L 365.2 -339.4 L 369.9 -332.0 L 392.0 -305.7 L 386.8 -301.5 L 386.8 -295.7 L 384.7 -287.3 L 385.2 -283.0 L 381.0 -273.0 L 377.3 -259.3 L 370.5 -245.7 L 369.9 -240.9 L 355.7 -213.0 L 327.3 -174.0 L 302.0 -150.9 L 285.7 -140.3 L 274.6 -135.6 L 258.3 -125.1 L 234.1 -114.5 L 217.2 -113.0 L 214.1 -113.5 L 212.5 -115.6 L 209.8 -132.4 L 209.8 -141.9 L 205.1 -160.3 L 205.1 -165.6 L 199.3 -191.4 L 199.3 -197.2 L 197.7 -198.8 L 196.7 -210.4 L 193.0 -224.6 L 188.8 -254.6 L 186.2 -259.9 L 185.6 -265.7 L 180.9 -278.8 L 180.4 -285.7 L 176.7 -294.6 L 176.7 -297.8 L 173.5 -303.1 L 169.3 -320.4 L 160.3 -336.8 L 160.3 -341.0 L 149.3 -362.0 L 142.4 -378.9 L 130.3 -401.0 L 126.6 -411.0 L 102.9 -456.3 L 90.8 -475.3 Z M -351.0 -345.2 L -343.1 -353.6 L -342.0 -356.8 L -334.6 -363.6 L -332.5 -368.4 L -328.9 -371.0 L -328.9 -372.6 L -305.2 -396.8 L -298.8 -400.5 L -293.0 -406.3 L -285.2 -409.4 L -274.1 -418.4 L -263.6 -422.6 L -259.9 -426.3 L -226.2 -441.0 L -191.9 -448.9 L -168.2 -452.1 L -139.3 -460.5 L -125.6 -466.3 L -101.4 -474.2 L -74.0 -480.0 L -59.2 -480.5 L -51.9 -482.6 L -37.7 -483.1 L -36.1 -484.2 L 38.2 -483.1 L 66.1 -480.5 L 69.2 -477.9 L 71.4 -472.1 L 79.8 -464.7 L 108.2 -412.6 L 118.7 -388.4 L 130.3 -366.8 L 145.1 -334.6 L 147.2 -326.2 L 158.8 -298.3 L 158.2 -296.2 L 163.0 -286.7 L 162.5 -284.6 L 166.1 -274.1 L 169.3 -257.8 L 171.4 -253.6 L 171.4 -248.8 L 173.0 -246.7 L 176.7 -228.8 L 176.1 -226.2 L 178.3 -220.4 L 185.6 -175.1 L 190.4 -155.6 L 190.4 -148.8 L 194.6 -129.3 L 196.7 -110.8 L 195.6 -109.8 L 183.0 -110.8 L 154.0 -117.2 L 118.7 -134.5 L 116.1 -137.2 L 100.8 -145.1 L 96.6 -149.3 L 82.9 -157.7 L 67.7 -173.5 L 64.0 -175.6 L 48.2 -190.9 L 36.6 -204.1 L 22.4 -223.0 L 19.7 -228.8 L 15.5 -233.0 L 1.8 -255.7 L -3.4 -261.5 L -5.5 -267.2 L -26.1 -282.5 L -98.2 -319.4 L -123.0 -328.3 L -130.3 -333.1 L -135.6 -332.5 L -141.9 -335.7 L -150.3 -335.7 L -178.8 -340.4 L -183.5 -337.3 L -190.4 -342.5 L -203.0 -347.3 L -220.9 -348.9 L -227.8 -347.8 L -235.7 -344.1 L -241.4 -343.6 L -247.8 -341.0 L -259.9 -327.8 L -263.0 -327.8 L -269.4 -332.0 L -284.6 -337.8 L -302.0 -337.3 L -309.9 -339.4 L -321.0 -338.9 L -325.2 -340.4 L -349.4 -342.0 L -351.0 -343.1 Z
" />
</svg>
