<svg xmlns="http://www.w3.org/2000/svg" viewBox="0 0 3024 3024">
  <path d="M 2411,2369 L 2410,2371 L 2410,2378 L 2419,2396 L 2425,2402 L 2427,2406 L 2435,2416 L 2442,2422 L 2439,2418 L 2438,2413 L 2428,2401 L 2427,2397 L 2421,2391 L 2418,2384 L 2416,2382 L 2414,2372 L 2412,2369 Z M 2411,2324 L 2411,2330 L 2412,2331 L 2412,2337 L 2411,2338 L 2411,2349 L 2413,2352 L 2413,2356 L 2412,2357 L 2412,2361 L 2413,2361 L 2414,2360 L 2414,2357 L 2415,2356 L 2415,2353 L 2414,2352 L 2414,2326 L 2413,2325 L 2413,2324 Z M 1231,2258 L 1230,2259 L 1230,2261 L 1231,2262 L 1231,2263 L 1236,2268 L 1236,2269 L 1237,2269 L 1237,2267 L 1238,2266 L 1238,2263 L 1237,2262 L 1237,2257 L 1234,2257 L 1233,2258 Z M 2468,2237 L 2467,2236 L 2463,2236 L 2462,2237 L 2461,2237 L 2459,2239 L 2458,2239 L 2457,2240 L 2456,2240 L 2453,2243 L 2451,2243 L 2450,2244 L 2450,2245 L 2451,2245 L 2452,2244 L 2453,2244 L 2454,2243 L 2456,2243 L 2457,2242 L 2459,2242 L 2460,2241 L 2461,2241 L 2462,2240 L 2464,2240 L 2465,2239 L 2467,2239 L 2468,2238 Z M 1984,2109 L 1984,2110 L 1985,2111 L 1995,2111 L 1996,2112 L 1999,2112 L 2000,2111 L 2003,2111 L 2004,2110 L 2006,2110 L 2007,2111 L 2008,2111 L 2010,2114 L 2019,2114 L 2019,2113 L 2018,2112 L 2016,2112 L 2015,2111 L 2011,2111 L 2008,2109 L 1997,2109 L 1996,2108 L 1995,2108 L 1994,2109 L 1987,2109 L 1986,2108 L 1985,2108 Z M 1645,2098 L 1645,2102 L 1644,2103 L 1644,2105 L 1648,2105 L 1649,2104 L 1653,2104 L 1654,2103 L 1654,2099 L 1653,2098 L 1652,2098 L 1651,2097 L 1646,2097 Z M 1551,1880 L 1562,2072 L 1568,2082 L 1585,2087 L 1624,2083 L 1642,2098 L 1637,2084 L 1628,2078 L 1583,2082 L 1566,2073 L 1559,1985 L 1558,1887 Z M 1554,1874 L 1651,1886 L 1917,1886 L 1938,1982 L 1938,2100 L 1955,2114 L 1979,2113 L 1944,2098 L 1946,1997 L 1918,1883 Z M 2457,1868 L 2414,1866 L 2393,1870 L 2307,1872 L 2247,1878 L 2281,1881 L 2334,1875 L 2453,1871 Z M 2432,1856 L 2428,1856 L 2427,1855 L 2426,1855 L 2425,1856 L 2422,1856 L 2421,1857 L 2419,1857 L 2418,1856 L 2416,1856 L 2415,1857 L 2400,1857 L 2399,1858 L 2395,1858 L 2394,1859 L 2393,1859 L 2393,1861 L 2398,1861 L 2399,1860 L 2403,1860 L 2404,1859 L 2413,1859 L 2414,1858 L 2432,1858 Z M 2548,1850 L 2548,1851 L 2549,1852 L 2551,1852 L 2552,1853 L 2566,1853 L 2566,1851 L 2556,1851 L 2555,1850 L 2553,1850 L 2552,1849 L 2550,1849 L 2549,1850 Z M 2418,1831 L 2418,1833 L 2426,1841 L 2427,1841 L 2433,1848 L 2436,1849 L 2443,1857 L 2449,1858 L 2450,1859 L 2455,1859 L 2459,1861 L 2462,1861 L 2461,1859 L 2457,1857 L 2455,1857 L 2451,1855 L 2448,1855 L 2441,1851 L 2436,1846 L 2436,1845 L 2435,1844 L 2433,1844 L 2426,1836 L 2422,1835 L 2421,1833 Z M 1035,1845 L 1006,1850 L 928,1824 L 810,1880 L 708,1854 L 654,1909 L 580,1901 L 523,1922 L 486,1898 L 472,1908 L 525,1939 L 599,1920 L 647,1928 L 681,1918 L 714,1875 L 810,1899 L 924,1847 L 1009,1868 L 1031,1863 Z M 1030,1851 L 1007,1863 L 925,1843 L 809,1895 L 714,1871 L 667,1920 L 587,1917 L 546,1935 L 509,1930 L 485,1909 L 520,1926 L 581,1906 L 654,1913 L 709,1860 L 806,1885 L 928,1830 L 1004,1854 Z M 1218,1784 L 1216,1792 L 1226,1803 L 1226,1805 L 1229,1808 L 1232,1808 L 1239,1815 L 1241,1815 L 1245,1818 L 1250,1818 L 1254,1816 L 1259,1821 L 1264,1821 L 1264,1819 L 1260,1815 L 1254,1812 L 1251,1812 L 1246,1807 L 1242,1805 L 1240,1807 L 1235,1808 L 1233,1806 L 1233,1804 L 1235,1802 L 1239,1803 L 1240,1802 L 1236,1801 L 1233,1798 L 1232,1795 L 1228,1793 L 1223,1788 L 1221,1783 Z M 1637,1762 L 1634,1762 L 1633,1763 L 1629,1763 L 1628,1764 L 1615,1764 L 1614,1765 L 1608,1765 L 1608,1767 L 1609,1768 L 1609,1770 L 1613,1770 L 1615,1768 L 1617,1768 L 1618,1767 L 1619,1767 L 1620,1768 L 1627,1768 L 1628,1767 L 1632,1767 L 1633,1766 L 1636,1766 L 1637,1765 Z M 1574,1760 L 1574,1761 L 1577,1764 L 1578,1764 L 1579,1765 L 1580,1765 L 1581,1766 L 1583,1766 L 1584,1767 L 1585,1767 L 1586,1768 L 1589,1768 L 1590,1767 L 1590,1765 L 1589,1765 L 1588,1764 L 1585,1764 L 1584,1763 L 1582,1763 L 1581,1762 L 1579,1762 L 1578,1761 L 1577,1761 L 1576,1760 Z M 2203,1758 L 2241,1777 L 2258,1798 L 2249,1836 L 2230,1850 L 2214,1852 L 2186,1837 L 2173,1792 L 2175,1787 L 2185,1793 L 2198,1788 L 2208,1777 L 2206,1770 L 2198,1763 L 2201,1777 L 2194,1784 L 2171,1788 L 2172,1810 L 2183,1841 L 2202,1854 L 2227,1856 L 2250,1842 L 2263,1802 L 2246,1775 L 2228,1764 Z M 1183,1736 L 1184,1743 L 1187,1748 L 1186,1750 L 1186,1757 L 1190,1764 L 1202,1775 L 1204,1780 L 1211,1788 L 1213,1788 L 1213,1783 L 1215,1781 L 1215,1779 L 1211,1775 L 1210,1771 L 1206,1767 L 1205,1767 L 1205,1769 L 1203,1771 L 1199,1768 L 1202,1765 L 1202,1763 L 1194,1750 L 1189,1746 L 1189,1740 L 1186,1736 Z M 2177,1739 L 2169,1748 L 2170,1760 L 2151,1765 L 2143,1776 L 2147,1819 L 2161,1858 L 2172,1865 L 2157,1838 L 2148,1779 L 2173,1762 L 2183,1743 L 2209,1737 L 2252,1750 L 2284,1777 L 2287,1801 L 2280,1829 L 2246,1871 L 2264,1862 L 2289,1815 L 2288,1774 L 2240,1740 L 2208,1732 Z M 1985,1718 L 1983,1718 L 1981,1720 L 1980,1724 L 1978,1726 L 1977,1726 L 1974,1730 L 1972,1730 L 1971,1731 L 1958,1731 L 1957,1732 L 1955,1732 L 1954,1731 L 1948,1731 L 1947,1733 L 1949,1734 L 1956,1734 L 1957,1735 L 1963,1735 L 1964,1734 L 1967,1734 L 1968,1735 L 1972,1735 L 1977,1729 L 1979,1729 L 1982,1727 L 1982,1723 L 1984,1721 Z M 2408,1706 L 2405,1709 L 2398,1732 L 2399,1741 L 2397,1744 L 2396,1776 L 2400,1786 L 2399,1796 L 2409,1823 L 2413,1825 L 2404,1801 L 2401,1774 L 2403,1768 L 2402,1745 L 2405,1735 L 2403,1726 L 2407,1722 L 2407,1716 L 2410,1711 L 2410,1707 Z M 2447,1722 L 2440,1783 L 2461,1828 L 2504,1847 L 2524,1867 L 2647,1862 L 2522,1863 L 2507,1843 L 2462,1823 L 2447,1799 L 2443,1760 L 2449,1726 L 2466,1706 L 2649,1853 L 2471,1704 Z M 1549,1707 L 1545,1721 L 1550,1744 L 1571,1782 L 1593,1810 L 1613,1812 L 1646,1806 L 1667,1796 L 1684,1781 L 1686,1767 L 1677,1745 L 1644,1705 L 1608,1699 L 1586,1715 L 1578,1712 L 1567,1699 L 1558,1700 Z M 1549,1715 L 1558,1705 L 1565,1702 L 1569,1704 L 1571,1713 L 1583,1721 L 1610,1702 L 1638,1708 L 1653,1720 L 1671,1743 L 1682,1768 L 1678,1782 L 1656,1796 L 1626,1806 L 1596,1805 L 1575,1780 L 1551,1735 Z M 2433,1685 L 2429,1685 L 2423,1691 L 2417,1704 L 2418,1711 L 2414,1722 L 2410,1760 L 2413,1803 L 2417,1815 L 2424,1825 L 2415,1801 L 2412,1773 L 2420,1709 L 2425,1697 L 2433,1690 Z M 2415,1683 L 2413,1683 L 2410,1686 L 2410,1689 L 2411,1689 L 2412,1690 L 2412,1691 L 2409,1694 L 2409,1695 L 2408,1696 L 2408,1699 L 2410,1699 L 2411,1698 L 2411,1696 L 2412,1695 L 2412,1693 L 2413,1692 L 2413,1691 L 2414,1690 L 2414,1686 L 2415,1685 Z M 1311,1675 L 1310,1676 L 1310,1677 L 1312,1679 L 1313,1679 L 1324,1690 L 1324,1691 L 1325,1692 L 1325,1694 L 1326,1695 L 1328,1695 L 1328,1692 L 1327,1691 L 1327,1690 L 1326,1689 L 1326,1688 L 1325,1687 L 1325,1686 L 1322,1683 L 1321,1683 L 1318,1680 L 1318,1679 L 1316,1677 L 1316,1676 L 1315,1675 Z M 1858,1669 L 1855,1672 L 1855,1678 L 1856,1679 L 1856,1680 L 1859,1683 L 1860,1683 L 1861,1684 L 1861,1685 L 1862,1686 L 1862,1687 L 1863,1688 L 1863,1689 L 1864,1690 L 1865,1690 L 1865,1688 L 1863,1686 L 1863,1684 L 1862,1683 L 1862,1682 L 1861,1681 L 1861,1680 L 1858,1677 L 1857,1677 L 1856,1676 L 1856,1675 L 1858,1673 L 1859,1673 L 1859,1669 Z M 1181,1667 L 1171,1732 L 1180,1832 L 1358,1833 L 1332,1823 L 1180,1828 L 1173,1730 L 1185,1668 L 1234,1682 L 1284,1713 L 1318,1749 L 1363,1826 L 1343,1777 L 1291,1713 L 1235,1678 Z M 1530,1686 L 1517,1713 L 1516,1741 L 1521,1759 L 1576,1834 L 1613,1842 L 1646,1838 L 1691,1818 L 1711,1799 L 1717,1769 L 1708,1738 L 1658,1677 L 1609,1666 L 1585,1676 L 1578,1668 L 1564,1664 L 1545,1672 Z M 1525,1702 L 1550,1675 L 1567,1669 L 1574,1673 L 1569,1677 L 1616,1672 L 1656,1682 L 1702,1737 L 1713,1775 L 1708,1795 L 1686,1816 L 1645,1833 L 1613,1838 L 1582,1832 L 1542,1786 L 1550,1787 L 1527,1750 L 1525,1726 L 1528,1760 L 1542,1784 L 1526,1764 L 1519,1743 Z M 1895,1657 L 1895,1662 L 1896,1663 L 1896,1664 L 1897,1665 L 1897,1666 L 1898,1667 L 1898,1668 L 1906,1676 L 1908,1676 L 1908,1675 L 1906,1673 L 1906,1672 L 1903,1669 L 1903,1668 L 1900,1665 L 1900,1663 L 1899,1662 L 1899,1661 L 1898,1660 L 1898,1659 L 1896,1657 Z M 1860,1650 L 1858,1650 L 1856,1652 L 1854,1652 L 1854,1657 L 1852,1659 L 1852,1663 L 1854,1665 L 1856,1665 L 1857,1664 L 1857,1662 L 1856,1661 L 1856,1657 L 1860,1653 Z M 1968,1647 L 1966,1649 L 1966,1651 L 1969,1654 L 1970,1654 L 1972,1656 L 1972,1658 L 1973,1659 L 1973,1662 L 1974,1663 L 1975,1663 L 1975,1661 L 1974,1660 L 1974,1653 L 1971,1650 L 1971,1649 L 1969,1647 Z M 1900,1642 L 1900,1648 L 1905,1657 L 1905,1661 L 1911,1668 L 1914,1675 L 1925,1686 L 1950,1698 L 1957,1698 L 1953,1695 L 1948,1695 L 1940,1692 L 1922,1681 L 1907,1659 L 1905,1648 L 1902,1642 Z M 1603,1642 L 1603,1643 L 1602,1644 L 1602,1645 L 1607,1650 L 1607,1651 L 1612,1656 L 1615,1656 L 1615,1652 L 1613,1650 L 1613,1649 L 1612,1648 L 1611,1648 L 1607,1644 L 1607,1643 L 1606,1643 L 1605,1642 Z M 1886,1622 L 1882,1622 L 1881,1623 L 1878,1624 L 1876,1626 L 1875,1626 L 1871,1630 L 1870,1630 L 1870,1631 L 1869,1632 L 1868,1632 L 1863,1637 L 1862,1637 L 1861,1638 L 1861,1639 L 1860,1640 L 1860,1643 L 1861,1643 L 1861,1642 L 1863,1640 L 1864,1640 L 1865,1639 L 1867,1639 L 1871,1635 L 1872,1635 L 1875,1630 L 1878,1630 L 1880,1628 L 1882,1628 L 1883,1627 L 1886,1626 Z M 1033,1671 L 1016,1653 L 930,1683 L 834,1688 L 776,1670 L 733,1628 L 680,1622 L 223,1675 L 210,1691 L 263,1705 L 545,1682 L 591,1663 L 703,1654 L 775,1702 L 857,1717 L 965,1701 Z M 1027,1666 L 963,1697 L 852,1713 L 782,1700 L 700,1650 L 590,1659 L 541,1678 L 273,1700 L 217,1689 L 676,1627 L 727,1631 L 780,1678 L 831,1692 L 916,1690 L 1014,1658 Z M 2023,1626 L 2017,1620 L 2022,1638 L 2023,1669 L 2015,1687 L 2006,1698 L 1981,1709 L 1945,1703 L 1917,1688 L 1910,1679 L 1909,1688 L 1920,1691 L 1926,1698 L 1945,1707 L 1971,1712 L 1985,1712 L 2001,1705 L 2015,1693 L 2026,1671 L 2028,1644 Z M 1924,1608 L 1924,1610 L 1927,1611 L 1931,1615 L 1939,1615 L 1940,1616 L 1940,1620 L 1943,1623 L 1947,1624 L 1955,1632 L 1956,1632 L 1960,1637 L 1963,1643 L 1966,1643 L 1966,1638 L 1962,1637 L 1960,1635 L 1961,1633 L 1961,1629 L 1956,1627 L 1947,1621 L 1943,1616 L 1938,1612 L 1930,1608 Z M 2000,1607 L 2008,1623 L 2008,1628 L 2010,1632 L 2011,1651 L 2012,1652 L 2012,1668 L 2009,1674 L 2009,1677 L 2010,1677 L 2015,1671 L 2015,1662 L 2016,1661 L 2015,1659 L 2015,1642 L 2014,1641 L 2014,1635 L 2011,1627 L 2011,1621 L 2005,1610 Z M 2007,1600 L 2007,1602 L 2011,1606 L 2011,1609 L 2012,1610 L 2012,1611 L 2013,1612 L 2013,1613 L 2014,1614 L 2014,1615 L 2016,1617 L 2017,1617 L 2018,1616 L 2018,1614 L 2017,1613 L 2017,1612 L 2016,1612 L 2012,1608 L 2012,1606 L 2011,1605 L 2011,1603 L 2010,1602 L 2010,1601 L 2009,1601 L 2008,1600 Z M 2317,1577 L 2319,1583 L 2429,1674 L 2437,1675 L 2415,1654 L 2372,1622 L 2366,1614 L 2344,1598 L 2341,1593 Z M 1931,1569 L 1926,1579 L 1912,1592 L 1919,1626 L 1927,1642 L 1939,1658 L 1955,1671 L 1968,1677 L 1977,1677 L 1984,1670 L 1988,1657 L 1986,1636 L 1981,1619 L 1970,1596 L 1941,1571 Z M 1933,1575 L 1939,1576 L 1953,1586 L 1967,1600 L 1972,1610 L 1982,1639 L 1983,1650 L 1982,1666 L 1975,1674 L 1957,1667 L 1944,1656 L 1930,1638 L 1923,1624 L 1923,1618 L 1918,1608 L 1916,1592 L 1923,1589 L 1931,1581 Z M 1884,1585 L 1885,1605 L 1890,1618 L 1888,1592 L 1892,1578 L 1910,1559 L 1924,1553 L 1933,1543 L 1975,1566 L 2001,1594 L 1991,1575 L 1979,1562 L 1936,1538 L 1928,1538 L 1921,1551 L 1909,1553 L 1897,1563 Z M 2213,1497 L 2210,1501 L 2211,1514 L 2226,1549 L 2236,1562 L 2270,1579 L 2282,1578 L 2292,1570 L 2291,1566 L 2281,1575 L 2267,1574 L 2243,1562 L 2233,1552 L 2213,1509 L 2214,1499 L 2219,1499 L 2285,1558 L 2292,1557 L 2226,1500 Z M 1622,1479 L 1622,1482 L 1625,1485 L 1627,1485 L 1636,1492 L 1642,1494 L 1661,1493 L 1664,1491 L 1669,1490 L 1674,1484 L 1674,1481 L 1673,1481 L 1670,1485 L 1666,1485 L 1664,1486 L 1662,1489 L 1659,1488 L 1654,1488 L 1653,1489 L 1639,1489 L 1636,1485 L 1626,1482 Z M 1409,1479 L 1406,1479 L 1406,1486 L 1405,1487 L 1405,1494 L 1402,1497 L 1402,1498 L 1401,1499 L 1401,1500 L 1406,1500 L 1407,1499 L 1407,1494 L 1406,1493 L 1407,1492 L 1407,1490 L 1408,1489 L 1408,1484 L 1409,1483 Z M 1625,1472 L 1625,1473 L 1627,1475 L 1632,1475 L 1634,1477 L 1639,1477 L 1643,1479 L 1647,1479 L 1648,1478 L 1657,1478 L 1658,1479 L 1662,1479 L 1669,1475 L 1673,1475 L 1673,1474 L 1671,1473 L 1651,1473 L 1650,1474 L 1646,1474 L 1645,1473 L 1630,1473 L 1629,1472 Z M 1639,1414 L 1639,1417 L 1636,1421 L 1636,1425 L 1634,1428 L 1635,1433 L 1632,1436 L 1628,1436 L 1620,1441 L 1620,1444 L 1615,1449 L 1615,1453 L 1616,1454 L 1615,1463 L 1618,1467 L 1617,1469 L 1619,1471 L 1623,1471 L 1621,1464 L 1621,1455 L 1620,1454 L 1623,1447 L 1627,1442 L 1634,1439 L 1640,1430 L 1640,1422 L 1641,1421 L 1641,1415 Z M 1369,1373 L 1373,1381 L 1389,1401 L 1403,1428 L 1406,1446 L 1402,1466 L 1402,1477 L 1405,1477 L 1408,1455 L 1411,1447 L 1409,1429 L 1390,1393 L 1380,1380 Z M 1259,1360 L 1257,1360 L 1253,1364 L 1253,1365 L 1249,1369 L 1249,1370 L 1248,1371 L 1248,1372 L 1249,1372 L 1251,1370 L 1252,1370 L 1252,1369 L 1259,1362 Z M 1662,1358 L 1669,1366 L 1667,1385 L 1672,1433 L 1678,1439 L 1695,1442 L 1702,1436 L 1701,1389 L 1687,1369 L 1680,1364 L 1697,1392 L 1696,1418 L 1699,1429 L 1696,1440 L 1683,1435 L 1679,1437 L 1676,1435 L 1675,1416 L 1672,1413 L 1675,1408 L 1671,1381 L 1674,1369 L 1672,1361 Z M 1287,1358 L 1269,1363 L 1253,1380 L 1289,1361 L 1315,1373 L 1363,1417 L 1376,1449 L 1367,1479 L 1354,1491 L 1314,1499 L 1306,1516 L 1267,1512 L 1241,1468 L 1246,1379 L 1236,1421 L 1241,1485 L 1263,1515 L 1298,1521 L 1316,1505 L 1359,1493 L 1376,1471 L 1380,1446 L 1366,1413 L 1343,1388 L 1310,1364 Z M 2027,1356 L 2050,1404 L 2053,1433 L 2048,1448 L 2036,1453 L 2013,1454 L 1987,1446 L 1975,1424 L 1975,1386 L 1981,1384 L 1995,1396 L 2001,1395 L 1981,1380 L 1972,1382 L 1970,1417 L 1976,1439 L 1987,1451 L 2003,1457 L 2040,1457 L 2057,1443 L 2058,1419 L 2054,1406 L 2057,1400 L 2043,1374 Z M 2061,1355 L 2079,1406 L 2082,1444 L 2070,1470 L 2047,1480 L 1997,1481 L 1963,1463 L 1952,1443 L 1949,1401 L 1939,1385 L 1947,1443 L 1956,1462 L 1974,1478 L 2002,1487 L 2034,1488 L 2068,1478 L 2077,1470 L 2086,1452 L 2087,1425 L 2075,1378 Z M 2067,1351 L 2113,1403 L 2191,1473 L 2177,1510 L 2210,1583 L 2223,1596 L 2278,1611 L 2299,1601 L 2309,1579 L 2297,1597 L 2275,1606 L 2224,1590 L 2197,1550 L 2182,1509 L 2193,1470 Z M 1283,1352 L 1281,1352 L 1280,1351 L 1273,1351 L 1271,1353 L 1269,1353 L 1268,1354 L 1264,1354 L 1263,1355 L 1262,1355 L 1261,1356 L 1261,1357 L 1265,1357 L 1266,1356 L 1267,1356 L 1268,1355 L 1269,1355 L 1270,1354 L 1272,1354 L 1273,1353 L 1276,1353 L 1278,1355 L 1281,1355 L 1283,1353 Z M 1635,1349 L 1626,1348 L 1625,1354 L 1617,1352 L 1606,1359 L 1593,1374 L 1586,1393 L 1586,1404 L 1594,1416 L 1585,1444 L 1597,1467 L 1613,1477 L 1613,1471 L 1598,1460 L 1589,1443 L 1591,1431 L 1598,1423 L 1591,1390 L 1608,1363 L 1618,1356 L 1637,1352 L 1640,1358 L 1628,1365 L 1622,1384 L 1613,1396 L 1614,1407 L 1622,1415 L 1632,1417 L 1633,1414 L 1620,1405 L 1619,1397 L 1630,1372 L 1642,1355 Z M 2023,1354 L 2008,1346 L 2000,1346 L 1999,1345 L 1990,1346 L 1980,1356 L 1973,1371 L 1973,1375 L 1975,1378 L 1977,1378 L 1978,1370 L 1984,1358 L 1991,1351 L 1993,1351 L 1997,1348 L 2010,1348 L 2022,1355 Z M 2004,1340 L 2004,1341 L 2007,1341 L 2008,1342 L 2014,1342 L 2017,1345 L 2019,1345 L 2024,1348 L 2026,1348 L 2028,1350 L 2028,1351 L 2035,1358 L 2038,1359 L 2037,1356 L 2029,1348 L 2026,1347 L 2024,1345 L 2023,1345 L 2016,1341 L 2013,1341 L 2012,1340 Z M 1259,1317 L 1227,1338 L 1211,1373 L 1205,1449 L 1214,1504 L 1242,1540 L 1272,1556 L 1336,1548 L 1397,1505 L 1330,1545 L 1276,1552 L 1246,1536 L 1219,1503 L 1210,1454 L 1214,1380 L 1242,1331 L 1279,1319 Z M 2019,1310 L 2008,1309 L 2004,1312 L 1994,1313 L 1978,1320 L 1957,1343 L 1949,1362 L 1949,1367 L 1940,1371 L 1937,1374 L 1938,1378 L 1941,1379 L 1942,1376 L 1957,1361 L 1957,1356 L 1961,1346 L 1964,1345 L 1968,1338 L 1981,1325 L 1997,1317 L 2006,1316 L 2018,1312 Z M 912,1337 L 907,1327 L 814,1299 L 776,1314 L 736,1306 L 653,1318 L 607,1314 L 592,1326 L 581,1354 L 546,1363 L 462,1364 L 453,1373 L 453,1393 L 474,1401 L 581,1389 L 605,1372 L 616,1349 L 658,1351 L 721,1338 L 791,1349 L 815,1332 L 907,1351 Z M 906,1339 L 889,1346 L 817,1328 L 789,1344 L 712,1334 L 652,1347 L 615,1346 L 592,1378 L 559,1390 L 467,1396 L 458,1388 L 468,1368 L 530,1369 L 577,1360 L 609,1319 L 657,1322 L 709,1311 L 777,1317 L 811,1303 L 897,1329 Z M 1973,1277 L 1973,1280 L 1975,1282 L 1977,1282 L 1980,1285 L 1981,1285 L 1982,1286 L 1984,1286 L 1984,1285 L 1981,1282 L 1980,1282 L 1977,1279 L 1977,1278 L 1976,1278 L 1975,1277 Z M 1203,1265 L 1182,1631 L 1302,1688 L 1391,1835 L 2168,1873 L 1393,1832 L 1384,1784 L 1304,1683 L 1185,1632 L 1204,1267 L 1281,1313 Z M 1957,1261 L 1957,1263 L 1955,1265 L 1955,1266 L 1957,1268 L 1960,1268 L 1961,1269 L 1962,1269 L 1963,1270 L 1964,1270 L 1965,1271 L 1966,1271 L 1967,1272 L 1969,1272 L 1969,1270 L 1967,1268 L 1966,1268 L 1965,1267 L 1963,1267 L 1959,1263 L 1959,1262 L 1958,1261 Z M 1170,1258 L 1143,1850 L 1516,1874 L 1523,2101 L 1620,2124 L 1641,2104 L 1613,2118 L 1527,2097 L 1520,1874 L 1145,1844 Z M 2010,1256 L 2701,1868 L 2297,1908 L 1959,1887 L 1978,2075 L 2042,2077 L 2024,2113 L 2053,2087 L 1977,2068 L 1957,1891 L 2297,1913 L 2698,1890 L 2683,1831 Z M 1958,1247 L 1960,1251 L 1971,1260 L 1984,1276 L 2003,1295 L 2014,1302 L 2019,1303 L 2019,1300 L 2011,1293 L 2005,1290 L 1987,1272 L 1986,1268 L 1970,1252 L 1967,1251 L 1962,1246 Z M 1926,1236 L 1926,1240 L 1925,1241 L 1925,1242 L 1926,1243 L 1928,1243 L 1929,1242 L 1931,1242 L 1932,1243 L 1932,1248 L 1936,1248 L 1937,1249 L 1937,1250 L 1940,1253 L 1941,1253 L 1942,1252 L 1945,1252 L 1944,1249 L 1942,1247 L 1941,1247 L 1940,1246 L 1939,1246 L 1938,1245 L 1935,1244 L 1933,1242 L 1933,1241 L 1931,1238 L 1930,1238 L 1928,1236 Z M 1166,1218 L 1027,1226 L 1004,1247 L 1012,1417 L 1032,1423 L 1052,1412 L 1044,1265 L 1168,1254 L 1043,1260 L 1047,1407 L 1024,1418 L 1012,1376 L 1012,1245 L 1038,1229 Z M 1731,1215 L 1727,1215 L 1726,1217 L 1726,1222 L 1724,1225 L 1724,1229 L 1722,1232 L 1722,1237 L 1721,1238 L 1721,1244 L 1719,1248 L 1720,1250 L 1720,1254 L 1721,1254 L 1723,1252 L 1723,1250 L 1724,1249 L 1724,1245 L 1725,1244 L 1725,1239 L 1726,1238 L 1726,1232 L 1727,1231 L 1727,1228 L 1730,1224 L 1729,1221 L 1730,1220 Z M 1901,1211 L 1901,1215 L 1900,1216 L 1900,1220 L 1901,1221 L 1903,1221 L 1907,1225 L 1908,1225 L 1909,1226 L 1912,1226 L 1915,1228 L 1917,1228 L 1918,1229 L 1918,1230 L 1921,1230 L 1922,1231 L 1923,1231 L 1923,1229 L 1922,1229 L 1918,1225 L 1917,1225 L 1915,1223 L 1914,1223 L 1911,1221 L 1909,1221 L 1905,1217 L 1905,1216 L 1904,1215 L 1904,1213 L 1902,1211 Z M 1888,1205 L 1887,1206 L 1887,1208 L 1889,1210 L 1889,1211 L 1890,1212 L 1892,1212 L 1895,1209 L 1895,1207 L 1894,1207 L 1892,1205 Z M 1607,1222 L 1591,1204 L 1575,1204 L 1566,1221 L 1566,1243 L 1555,1275 L 1515,1295 L 1474,1284 L 1422,1239 L 1411,1239 L 1402,1248 L 1402,1262 L 1441,1296 L 1407,1259 L 1410,1246 L 1420,1244 L 1470,1288 L 1520,1298 L 1557,1279 L 1579,1209 L 1589,1209 L 1601,1221 L 1598,1238 Z M 1204,1196 L 1202,1234 L 1503,1410 L 1555,1417 L 1452,1378 L 1218,1228 L 1204,1233 L 1210,1195 L 1547,1408 Z M 1739,1192 L 1738,1192 L 1737,1193 L 1737,1194 L 1736,1195 L 1736,1196 L 1735,1197 L 1735,1198 L 1734,1199 L 1734,1200 L 1732,1202 L 1732,1203 L 1731,1204 L 1731,1205 L 1730,1206 L 1730,1207 L 1729,1208 L 1729,1210 L 1730,1210 L 1731,1211 L 1733,1211 L 1733,1210 L 1734,1209 L 1734,1207 L 1735,1206 L 1735,1205 L 1736,1204 L 1736,1202 L 1737,1201 L 1737,1200 L 1739,1198 Z M 2100,1189 L 2097,1190 L 2100,1201 L 2097,1236 L 2090,1238 L 2096,1241 L 2096,1246 L 2090,1251 L 2072,1259 L 2038,1254 L 2033,1251 L 2008,1251 L 2064,1262 L 2068,1265 L 2096,1253 L 2100,1246 L 2097,1239 L 2101,1234 L 2103,1215 L 2100,1212 L 2104,1205 L 2101,1201 Z M 1621,1183 L 1615,1189 L 1611,1227 L 1586,1279 L 1587,1285 L 1577,1298 L 1560,1310 L 1530,1322 L 1479,1323 L 1499,1328 L 1530,1327 L 1564,1313 L 1585,1297 L 1617,1218 Z M 1959,1182 L 1959,1185 L 1960,1186 L 1960,1188 L 1961,1189 L 1961,1191 L 1964,1191 L 1965,1190 L 1966,1190 L 1967,1189 L 1967,1187 L 1962,1182 Z M 1885,1180 L 1695,1507 L 1660,1527 L 1612,1512 L 1555,1463 L 1372,1366 L 1447,1421 L 1555,1468 L 1613,1519 L 1663,1531 L 1712,1495 Z M 1888,1178 L 1909,1201 L 1912,1202 L 1954,1243 L 1953,1247 L 1955,1247 L 1956,1238 L 1930,1215 L 1897,1181 L 1892,1178 Z M 1934,1154 L 1934,1156 L 1933,1157 L 1933,1158 L 1935,1160 L 1936,1160 L 1940,1164 L 1940,1165 L 1945,1170 L 1945,1172 L 1946,1173 L 1946,1174 L 1947,1175 L 1950,1176 L 1953,1179 L 1954,1179 L 1956,1177 L 1956,1176 L 1954,1174 L 1953,1174 L 1947,1168 L 1947,1167 L 1943,1163 L 1942,1160 L 1940,1158 L 1940,1156 L 1939,1156 L 1936,1154 Z M 1829,1145 L 1829,1153 L 1832,1156 L 1833,1156 L 1836,1159 L 1837,1159 L 1841,1163 L 1845,1163 L 1845,1161 L 1841,1157 L 1840,1157 L 1836,1153 L 1836,1152 L 1830,1146 L 1830,1145 Z M 1784,1144 L 1693,1326 L 1663,1313 L 1611,1316 L 1596,1322 L 1557,1371 L 1476,1330 L 1552,1375 L 1613,1321 L 1666,1318 L 1696,1328 Z M 1920,1143 L 1920,1144 L 1922,1146 L 1923,1146 L 1928,1151 L 1930,1151 L 1931,1150 L 1931,1147 L 1930,1146 L 1929,1146 L 1928,1145 L 1927,1145 L 1925,1143 Z M 1910,1125 L 1910,1126 L 1909,1127 L 1909,1128 L 1910,1128 L 1912,1130 L 1913,1130 L 1915,1132 L 1915,1133 L 1914,1134 L 1914,1135 L 1916,1137 L 1916,1138 L 1917,1139 L 1917,1140 L 1918,1141 L 1919,1141 L 1922,1138 L 1922,1137 L 1921,1136 L 1920,1136 L 1917,1133 L 1917,1131 L 1916,1130 L 1916,1128 L 1915,1127 L 1915,1126 L 1914,1126 L 1913,1125 Z M 904,1152 L 878,1125 L 662,1126 L 259,1220 L 199,1222 L 100,1183 L 47,1205 L 60,1219 L 133,1222 L 163,1251 L 244,1252 L 670,1155 L 896,1170 Z M 898,1152 L 890,1164 L 671,1151 L 241,1248 L 165,1246 L 131,1217 L 53,1209 L 110,1189 L 200,1226 L 268,1223 L 670,1130 L 876,1130 Z M 1830,1124 L 1717,1338 L 1736,1385 L 1768,1344 L 1863,1157 L 1854,1158 L 1736,1384 L 1719,1344 Z M 1836,1121 L 1836,1122 L 1838,1124 L 1840,1129 L 1846,1134 L 1847,1137 L 1857,1147 L 1857,1148 L 1861,1148 L 1861,1146 L 1860,1145 L 1860,1144 L 1855,1140 L 1855,1139 L 1850,1134 L 1850,1133 L 1839,1122 Z M 1887,1106 L 1887,1110 L 1888,1111 L 1889,1111 L 1892,1113 L 1894,1113 L 1895,1112 L 1898,1112 L 1899,1113 L 1899,1115 L 1901,1117 L 1902,1117 L 1904,1119 L 1905,1119 L 1906,1120 L 1909,1121 L 1909,1119 L 1906,1116 L 1906,1115 L 1903,1112 L 1902,1112 L 1901,1111 L 1898,1111 L 1896,1108 L 1893,1108 L 1892,1109 L 1891,1108 L 1890,1108 L 1888,1106 Z M 1873,1089 L 1873,1092 L 1875,1094 L 1879,1094 L 1880,1095 L 1880,1096 L 1879,1097 L 1879,1099 L 1881,1101 L 1882,1101 L 1884,1099 L 1884,1096 L 1883,1095 L 1880,1095 L 1879,1094 L 1879,1091 L 1878,1090 L 1875,1090 L 1874,1089 Z M 1322,1080 L 1322,1083 L 1323,1084 L 1324,1088 L 1329,1093 L 1332,1094 L 1336,1098 L 1336,1099 L 1339,1100 L 1343,1104 L 1344,1104 L 1346,1106 L 1348,1106 L 1352,1108 L 1362,1108 L 1361,1106 L 1357,1104 L 1353,1104 L 1352,1103 L 1350,1103 L 1341,1095 L 1333,1090 L 1323,1080 Z M 1327,1074 L 1327,1076 L 1328,1077 L 1329,1077 L 1336,1083 L 1341,1085 L 1354,1096 L 1356,1096 L 1365,1101 L 1365,1099 L 1349,1085 L 1341,1081 L 1338,1078 L 1332,1075 Z M 1572,1077 L 1576,1089 L 1613,1116 L 1643,1123 L 1655,1116 L 1654,1105 L 1633,1090 L 1619,1085 L 1607,1085 L 1592,1074 L 1576,1073 L 1582,1078 L 1597,1081 L 1606,1089 L 1624,1091 L 1641,1099 L 1654,1109 L 1647,1120 L 1609,1108 Z M 1788,1067 L 1787,1067 L 1788,1074 L 1796,1084 L 1804,1091 L 1804,1094 L 1799,1100 L 1800,1103 L 1798,1106 L 1798,1110 L 1791,1118 L 1792,1121 L 1786,1136 L 1786,1139 L 1790,1137 L 1795,1121 L 1800,1115 L 1804,1102 L 1807,1097 L 1806,1087 Z M 1847,1063 L 1847,1065 L 1850,1068 L 1850,1069 L 1851,1070 L 1854,1070 L 1856,1068 L 1858,1068 L 1858,1066 L 1856,1064 L 1856,1063 L 1852,1063 L 1852,1065 L 1851,1066 L 1850,1066 L 1849,1065 L 1849,1063 Z M 1816,1028 L 1815,1030 L 1817,1032 L 1821,1033 L 1822,1034 L 1822,1038 L 1823,1040 L 1830,1040 L 1833,1043 L 1833,1044 L 1837,1049 L 1840,1049 L 1842,1051 L 1843,1058 L 1844,1058 L 1845,1057 L 1845,1052 L 1843,1050 L 1841,1046 L 1834,1039 L 1828,1036 L 1821,1029 L 1819,1028 Z M 1798,1017 L 1798,1020 L 1799,1021 L 1800,1021 L 1801,1020 L 1805,1024 L 1807,1024 L 1810,1027 L 1811,1027 L 1812,1026 L 1813,1026 L 1814,1025 L 1814,1024 L 1812,1022 L 1811,1022 L 1810,1021 L 1809,1021 L 1807,1019 L 1806,1019 L 1805,1018 L 1804,1018 L 1802,1016 L 1800,1016 L 1799,1017 Z M 1611,1009 L 1613,1018 L 1638,1042 L 1672,1062 L 1691,1077 L 1703,1081 L 1712,1077 L 1714,1072 L 1713,1064 L 1701,1051 L 1691,1044 L 1682,1042 L 1668,1031 L 1661,1029 L 1644,1017 L 1645,1011 L 1638,1009 L 1629,1002 L 1620,1003 Z M 1616,1010 L 1620,1006 L 1637,1008 L 1638,1018 L 1656,1029 L 1659,1033 L 1671,1038 L 1677,1045 L 1686,1047 L 1698,1054 L 1710,1066 L 1710,1074 L 1704,1078 L 1699,1074 L 1694,1073 L 1677,1059 L 1646,1040 L 1643,1040 L 1620,1017 L 1615,1015 Z M 1778,999 L 1778,1001 L 1779,1002 L 1779,1003 L 1780,1004 L 1781,1004 L 1791,1014 L 1797,1014 L 1797,1013 L 1794,1010 L 1793,1010 L 1792,1009 L 1791,1009 L 1790,1008 L 1789,1008 L 1788,1007 L 1788,1006 L 1782,1000 L 1781,1000 L 1780,999 Z M 1782,1076 L 1775,1142 L 1743,1168 L 1584,1173 L 1537,1098 L 1492,1091 L 1464,1161 L 1405,1189 L 1236,1150 L 1241,1010 L 1406,996 L 1487,1064 L 1534,1056 L 1533,1015 L 1567,976 L 1702,984 L 1563,971 L 1527,1017 L 1532,1054 L 1479,1061 L 1422,996 L 1281,990 L 1233,1010 L 1222,1071 L 1241,1161 L 1403,1194 L 1469,1164 L 1492,1095 L 1537,1103 L 1552,1156 L 1592,1181 L 1745,1173 L 1780,1137 Z M 1660,956 L 1660,957 L 1661,958 L 1661,959 L 1662,960 L 1663,960 L 1667,964 L 1668,964 L 1669,965 L 1671,965 L 1671,962 L 1669,960 L 1668,960 L 1666,958 L 1666,957 L 1664,955 L 1661,955 Z M 1612,955 L 1612,957 L 1613,957 L 1614,958 L 1615,958 L 1616,957 L 1619,957 L 1620,958 L 1620,959 L 1623,959 L 1624,958 L 1624,955 L 1623,954 L 1617,954 L 1616,953 L 1614,953 Z M 1629,920 L 1629,922 L 1633,926 L 1633,927 L 1634,928 L 1634,929 L 1635,930 L 1637,930 L 1641,934 L 1642,934 L 1643,935 L 1643,936 L 1645,938 L 1646,938 L 1647,939 L 1648,939 L 1648,936 L 1642,930 L 1641,930 L 1639,928 L 1637,928 L 1635,926 L 1635,924 L 1634,923 L 1634,922 L 1633,922 L 1631,920 Z M 1582,913 L 1579,917 L 1579,921 L 1581,923 L 1586,925 L 1589,929 L 1593,928 L 1595,930 L 1595,935 L 1599,936 L 1600,938 L 1604,940 L 1609,946 L 1614,948 L 1615,947 L 1615,945 L 1612,943 L 1597,927 L 1596,927 L 1591,922 L 1587,920 L 1585,918 L 1584,914 Z M 1575,905 L 1572,908 L 1571,908 L 1571,909 L 1574,912 L 1577,912 L 1579,910 L 1579,907 L 1577,905 Z M 1104,969 L 1091,949 L 963,914 L 896,939 L 769,903 L 697,936 L 489,907 L 352,955 L 184,955 L 191,976 L 298,989 L 380,984 L 496,941 L 722,966 L 757,938 L 889,972 L 934,969 L 956,951 L 1085,983 Z M 1099,969 L 1086,978 L 966,947 L 894,968 L 783,934 L 752,935 L 706,964 L 498,936 L 336,984 L 196,973 L 191,957 L 353,959 L 492,911 L 699,940 L 770,908 L 895,943 L 967,920 L 1088,954 Z M 1594,883 L 1226,917 L 1210,976 L 1207,1158 L 1437,1303 L 1209,1155 L 1223,924 L 1341,903 L 1540,900 Z M 1600,881 L 1602,887 L 1618,898 L 1643,923 L 1664,938 L 1691,969 L 1706,977 L 1668,936 L 1646,921 L 1623,896 Z M 1564,848 L 1529,820 L 1508,834 L 1237,850 L 1222,855 L 1219,885 L 1226,855 L 1417,850 L 1515,838 L 1532,822 L 1560,855 L 1543,856 L 1538,841 L 1537,857 L 1346,866 L 1228,892 L 1347,871 L 1536,862 Z M 1222,810 L 1224,816 L 1229,820 L 1242,820 L 1251,818 L 1254,815 L 1262,811 L 1262,810 L 1251,812 L 1246,815 L 1235,815 L 1229,817 L 1227,815 L 1225,807 L 1226,803 L 1233,806 L 1238,806 L 1240,804 L 1243,805 L 1254,805 L 1254,804 L 1244,801 L 1225,801 L 1223,800 Z M 1470,781 L 1470,783 L 1471,783 L 1473,785 L 1473,786 L 1475,788 L 1479,788 L 1479,785 L 1477,783 L 1475,783 L 1474,782 L 1473,782 L 1472,781 Z M 1503,790 L 1396,696 L 1364,755 L 1335,783 L 1301,801 L 1323,797 L 1355,774 L 1374,749 L 1394,698 L 1502,794 L 1300,810 L 1489,801 Z M 1226,573 L 1226,765 L 1299,769 L 1344,734 L 1364,663 L 1233,573 L 1360,667 L 1342,727 L 1318,754 L 1295,766 L 1231,767 L 1235,642 Z M 1195,546 L 1169,1220 L 1206,546 L 1383,641 L 1963,1210 L 2065,1224 L 2082,1072 L 2100,1178 L 2107,1085 L 2079,1066 L 2063,1221 L 1967,1209 L 1385,636 Z M 1388,83 L 1386,83 L 1386,94 L 1387,95 L 1387,102 L 1386,103 L 1386,106 L 1387,106 L 1389,104 L 1389,85 L 1388,84 Z M 1390,66 L 1388,66 L 1387,67 L 1387,73 L 1386,74 L 1386,79 L 1387,80 L 1388,80 L 1389,79 L 1389,78 L 1390,77 L 1390,70 L 1391,69 L 1391,68 L 1390,67 Z" fill="#000000" stroke="#000000" stroke-width="1.5" stroke-linecap="round" stroke-linejoin="round"/>
</svg>